<?xml version="1.0" standalone="no"?>
<!DOCTYPE svg PUBLIC "-//W3C//DTD SVG 1.1//EN" "http://www.w3.org/Graphics/SVG/1.1/DTD/svg11.dtd" >
<!--
2013-9-30: Created.
-->
<svg>
<metadata>
Created by iconfont
</metadata>
<defs>

<font id="iconfont" horiz-adv-x="1024" >
  <font-face
    font-family="iconfont"
    font-weight="500"
    font-stretch="normal"
    units-per-em="1024"
    ascent="896"
    descent="-128"
  />
    <missing-glyph />
    
    <glyph glyph-name="gaosu" unicode="&#58881;" d="M230.4 658.432q10.24 30.72 19.456 48.64t19.968 26.624 24.064 11.264 32.768 3.584l118.784 0-118.784-745.472-156.672 0q-63.488 0-80.384 44.544t7.68 126.464q8.192 26.624 19.456 67.072t24.064 87.04 25.6 96.256 25.088 94.72 22.016 81.408 16.896 57.856zM581.632 622.592l-74.752 0 6.144 124.928 61.44 0zM595.968 311.296l-103.424 0 11.264 248.832 80.896 0zM598.016 248.832l11.264-248.832-131.072 0 11.264 248.832 108.544 0zM998.4 161.792q7.168-22.528 11.264-50.176t0-51.712-18.944-40.448-44.544-16.384l-186.368 0-119.808 745.472 96.256 0q51.2 0 86.016-22.528t53.248-80.896q6.144-18.432 15.36-57.344l22.528-88.064q12.288-49.152 25.088-102.4t24.064-100.352l21.504-83.968q9.216-36.864 14.336-51.2z"  horiz-adv-x="1024" />

    
    <glyph glyph-name="weixin" unicode="&#58930;" d="M693.12 548.736c11.776 0 23.36-0.896 35.008-2.176-31.36 146.048-187.456 254.528-365.696 254.528C163.2 801.088 0 665.344 0 492.864c0-99.52 54.272-181.248 145.024-244.736L108.8 139.136l126.72 63.488c45.312-8.896 81.664-18.112 126.912-18.112 11.392 0 22.656 0.512 33.792 1.344-7.04 24.256-11.2 49.6-11.2 76.032C385.088 420.224 521.024 548.736 693.12 548.736zM498.304 646.976c27.392 0 45.376-17.984 45.376-45.248 0-27.136-17.984-45.312-45.376-45.312-27.072 0-54.336 18.176-54.336 45.312C443.968 629.056 471.168 646.976 498.304 646.976zM244.672 556.416c-27.2 0-54.592 18.176-54.592 45.312 0 27.264 27.392 45.248 54.592 45.248S289.92 629.056 289.92 601.728C289.92 574.592 271.872 556.416 244.672 556.416zM1024 266.24c0 144.896-145.024 262.976-307.904 262.976-172.48 0-308.224-118.144-308.224-262.976 0-145.28 135.808-262.976 308.224-262.976 36.096 0 72.512 9.024 108.736 18.112l99.392-54.528-27.264 90.624C969.728 112.128 1024 184.512 1024 266.24zM616.128 311.616c-17.984 0-36.224 17.92-36.224 36.224 0 18.048 18.24 36.224 36.224 36.224 27.52 0 45.376-18.176 45.376-36.224C661.504 329.536 643.648 311.616 616.128 311.616zM815.488 311.616c-17.856 0-36.032 17.92-36.032 36.224 0 18.048 18.112 36.224 36.032 36.224 27.264 0 45.376-18.176 45.376-36.224C860.864 329.536 842.752 311.616 815.488 311.616z"  horiz-adv-x="1024" />

    
    <glyph glyph-name="xiangxia" unicode="&#58904;" d="M897.070634 323.006857 511.721149-62.579011 129.77825 319.363887 175.002244 364.588905 479.687572 59.902554 479.687572 831.975824 543.644209 831.975824 543.644209 60.028421 851.84664 368.230851Z"  horiz-adv-x="1024" />

    
    <glyph glyph-name="yuyuefuwu" unicode="&#58907;" d="M1001 646.4c-2.8 8.2-9.7 14.5-18 16.7-8.3 2.2-17 0-22.8-5.8L797.9 494.9 620.3 672.5 783.4 835.6c6.2 6.2 8.3 15.5 5.4 24.3-2.9 8.7-10.3 15.4-19.2 17.4C676.4 897.7 538.4 892.5 456.1 810.2c-76.5-76.5-90.3-188.6-77.4-272.7L12.8 171.5c-9.3-9.3-8.9-24.7 1-34.6l248.6-248.6c9.8-9.8 25.3-10.2 34.6-1l365.6 365.6c100.1-27.6 191.4-1 271.6 79.2C1016 414.1 1041.1 531.6 1001 646.4zM898.6 367.7c-71.7-71.7-149.5-92.7-237.7-64-8.7 2.8-17.9 0.7-24.1-5.5L278.2-60.3 65.1 152.8l357.5 357.5c5.4 5.4 7.7 13.3 6.2 21.1-14.1 73.2-5 175.5 62.7 243.2 56.5 56.5 146.6 69.2 222.1 62.3L568 691.2c-9.3-9.3-8.9-24.8 1-34.6l213.1-213.1c9.8-9.8 25.3-10.2 34.6-1l149.3 149.3C981.9 508.6 958 427.1 898.6 367.7zM521.2 502.4 627.8 395.8 645.5 413.6 539 520.1Z"  horiz-adv-x="1024" />

    
    <glyph glyph-name="xiangyoujiantou" unicode="&#58978;" d="M373.412318 690.577249 334.856478 653.113656l277.618102-269.744922L334.856478 113.614083l38.55584-37.458727 316.165428 307.213379L373.412318 690.577249 373.412318 690.577249zM373.412318 690.577249"  horiz-adv-x="1024" />

    
    <glyph glyph-name="jingdong" unicode="&#59410;" d="M674.922667-11.648l-139.648 0-93.098667 0 0 93.098667L442.176 686.549333 442.176 779.648l93.098667 0 139.648 0C867.712 779.648 1024 602.496 1024 384S867.712-11.648 674.922667-11.648zM674.922667 686.549333l-139.648 0 0-605.077333 139.648 0c141.376 0 256 135.466667 256 302.549333C930.922667 551.104 816.298667 686.549333 674.922667 686.549333zM46.549333-11.648 0-11.648l0 93.098667 46.549333 0c102.826667 0 186.197333 83.349333 186.197333 186.197333l0 512 93.098667 0 0-512C325.824 113.408 200.789333-11.648 46.549333-11.648z"  horiz-adv-x="1024" />

    
    <glyph glyph-name="qq" unicode="&#58926;" d="M550.744931 61.193966 550.744931 61.193966c-11.183713 0-16.754592 0-22.327518 0-5.53404 0-11.144828 0-16.718777 0l-5.572926 0c-5.571902 0-16.717753 0-22.289656-5.53404-22.290679-22.326495-61.298088-33.475416-111.453395-33.475416-33.434483 0-61.298088 5.610788-89.163739 16.7198-22.289656 11.143805-33.435507 22.326495-33.435507 39.009456 0 16.717753 11.143805 27.862581 39.009456 39.045271 16.717753 5.535063 22.289656 11.106965 22.289656 22.326495 0 11.106965 0 22.25384-5.572926 27.863604-11.144828 11.034311-16.718777 27.788903-27.863604 38.896892-5.572926 11.144828-16.71673 16.755616-27.861558 16.755616l0 0c-11.144828 0-16.717753-5.608741-27.863604-11.220552-11.143805-11.106965-16.717753-16.644075-22.290679-16.644075l0 0c-5.572926 0-11.106965 16.644075-11.106965 44.505633 0 27.863604 5.535063 61.336974 11.070126 94.810343 11.145851 33.398668 27.862581 61.261249 55.725162 89.124853 5.574972 5.535063 11.146874 16.717753 11.146874 27.863604 0 5.53404 0 5.53404 0 11.106965 0 16.755616 5.571902 33.435507 16.71673 50.154283 5.573949 5.572926 5.573949 11.143805 5.573949 16.717753l0 5.573949c0.035816 66.908876 22.288632 122.635061 72.480778 172.789345 44.582381 50.191122 100.30652 72.444962 167.180604 72.444962 66.872037 0 122.600269-22.290679 172.751482-72.444962 44.618197-50.154283 72.480778-105.880469 72.480778-172.715667 0 0 0 0 0-5.572926 0-5.573949 0-11.144828 5.536087-16.717753 11.141758-16.718777 16.717753-33.398668 16.717753-50.154283 0-5.572926 0-5.572926 0-11.106965 0-11.144828 0-22.326495 11.143805-27.862581 27.863604-27.862581 44.581358-55.726186 55.726186-89.124853 11.144828-33.474392 16.717753-66.944691 11.144828-94.810343 0-27.862581-5.573949-38.97057-16.681938-44.50768-5.573949 0-11.183713 5.535063-22.328541 16.645099-5.533017 5.572926-16.718777 11.219529-27.861558 11.219529l-5.536087 0c-11.184737 0-22.325471-5.606695-27.861558-16.753569-5.573949-16.71673-16.754592-27.863604-27.863604-38.969547-5.572926-5.608741-11.18269-16.754592-5.572926-27.863604 0-11.220552 11.145851-16.753569 16.682961-22.326495 27.826765-11.219529 39.010479-22.364357 39.010479-39.08211 0-16.680914-11.183713-27.863604-33.43653-39.008432-22.289656-11.106965-55.724139-16.7198-89.164762-16.7198-50.15326 0-83.58979 11.184737-111.452371 33.474392 5.571902 0-5.572926 5.572926-11.106965 5.572926l0 0L550.744931 61.193966zM678.880263-44.724365c55.726186 0 100.30652 11.143805 133.74305 33.398668 33.435507 22.326495 55.724139 50.191122 55.724139 89.163739 0 22.291702-5.53404 39.046295-16.678868 55.726186 5.571902 0 16.678868 0 22.287609 5.608741 33.435507 11.106965 50.15633 38.97057 55.727209 83.591837 5.571902 38.9675 0 83.58979-16.681938 133.706211-11.18269 39.046295-33.435507 72.444962-61.297065 105.880469l0 0c0 27.862581-5.573949 50.154283-16.7198 78.015841 0 83.590813-27.861558 156.034752-89.124853 217.370703C684.450119 819.036118 612.004133 846.901769 528.418436 846.901769c-83.590813 0-156.034752-27.862581-217.334887-89.124853-55.764048-61.33595-89.163739-133.781936-89.163739-217.370703-11.143805-22.290679-16.717753-50.154283-16.717753-78.016865l0-5.571902c-33.434483-27.863604-50.154283-66.87306-61.298088-100.305497-16.718777-50.118468-22.290679-94.737688-16.718777-133.708258 5.573949-44.61922 27.863604-72.482825 55.726186-83.590813 5.572926 0 16.718777-5.608741 22.290679-5.608741-11.144828-16.681938-16.718777-33.43653-16.718777-55.726186 0-33.435507 16.718777-66.872037 55.727209-89.163739 33.435507-22.291702 78.015841-33.435507 128.169101-33.435507 55.725162 0 105.880469 11.142781 139.316999 39.007409l27.863604 0c39.045271-27.862581 83.590813-39.007409 139.316999-39.007409l0 0L678.880263-44.724365z"  horiz-adv-x="1024" />

    
    <glyph glyph-name="tel" unicode="&#58880;" d="M607.512331 348.090139c-21.350261 0-37.521568-19.218714-56.891731-19.218714-19.213597 0-103.557564 83.125209-103.557564 103.562681 0 20.434401 19.218714 30.502711 19.218714 51.701522 0 15.253402-56.891731 108.593254-80.227206 108.593254-23.336498 0-80.227206-41.638329-80.227206-80.223113 0-111.646799 205.90251-325.632405 334.782809-325.632405 35.535331 0 80.227206 37.521568 80.227206 80.228229C721.139228 283.115312 628.711142 348.090139 607.512331 348.090139M513.332345-58.937065c-60.181661 0-118.570489 11.873422-173.546591 35.288714-53.082986 22.60995-100.750635 54.972009-141.677766 96.187713-40.919968 41.207517-73.046666 89.193415-95.489818 142.628418-23.236214 55.32198-35.017538 114.077152-35.017538 174.633343 0 60.556191 11.782348 119.311363 35.017538 174.633343 22.443152 53.43398 54.570873 101.420901 95.489818 142.627395 40.928155 41.215704 88.595804 73.577762 141.677766 96.187713 54.976102 23.416316 113.364931 35.288714 173.546591 35.288714s118.570489-11.873422 173.546591-35.288714c53.082986-22.60995 100.750635-54.972009 141.677766-96.187713 40.919968-41.206494 73.04769-89.193415 95.489818-142.627395 23.236214-55.32198 35.018561-114.077152 35.018561-174.633343 0-60.556191-11.782348-119.311363-35.018561-174.633343-22.443152-53.435003-54.56985-101.420901-95.489818-142.628418-40.927131-41.215704-88.594781-73.577762-141.677766-96.187713C631.902834-47.063643 573.512982-58.937065 513.332345-58.937065zM513.332345 802.769642c-226.054479 0-409.962046-185.256284-409.962046-412.968519 0-227.712235 183.90859-412.968519 409.962046-412.968519 226.054479 0 409.963069 185.256284 409.963069 412.968519C923.295414 617.513358 739.386824 802.769642 513.332345 802.769642z"  horiz-adv-x="1024" />

    
    <glyph glyph-name="wenhua" unicode="&#58925;" d="M264.776386 723.373361l602.544179 0 0 49.830919L264.776386 773.204279c-44.033889 0-109.217471-34.908044-109.217471-109.829408l0.763386 0 0-639.442554 0-1.13587c0-14.582113 13.854543-26.113751 30.707372-26.113751l142.015458 0 506.920308 0 1.067308 0c16.85283 0 30.287817 11.531638 30.287817 26.113751L867.320565 662.842753l0 0.532119c0 14.777565-13.43908 26.733874-30.287817 26.733874L329.045131 690.108746 210.94127 690.108746C225.611387 721.039199 264.297478 723.373361 264.776386 723.373361L264.776386 723.373361zM396.591527 457.694419 396.591527 636.868171l190.251042 0L586.842569 457.694419l0-102.82283-82.612533 66.667376c-7.138584 5.65172-17.895579 5.65172-24.622794 0l-83.015715-66.667376L396.591527 457.694419 396.591527 457.694419 396.591527 457.694419zM217.288838 636.868171l142.998855 0 0-179.177845 0-139.385561c0-3.789303 1.50733-7.582699 4.749164-10.81737 7.139607-6.235005 18.395976-6.794753 25.726941-0.747014l101.135398 81.252559 100.131535-80.864726c3.673669-2.64627 7.966439-4.932336 13.187347-4.932336 9.925047 0 18.127869 7.398504 18.127869 16.104793L623.345947 457.694419 623.345947 636.868171l182.999894 0 0-587.17719L217.288838 49.690982 217.288838 636.868171 217.288838 636.868171zM217.288838 636.868171"  horiz-adv-x="1024" />

    
    <glyph glyph-name="sousuo" unicode="&#58953;" d="M140.544 81.024c-43.9552 0.0768-79.5136 35.6352-79.616 79.5648l0 0L60.928 676.1216c0.1024 43.9552 35.6608 79.5136 79.616 79.616l0 0 665.3696 0 149.2736-147.2768-18.6624-18.8928 18.6624 18.8928 7.8848-7.7824 0-440.064c-0.128-43.9552-35.6608-79.488-79.5904-79.5648l0 0L140.544 81.0496 140.544 81.024zM113.9968 676.1216l0-515.5328c0.0256-14.3872 12.1088-26.496 26.5472-26.496l0 0 742.9376 0c14.4128 0 26.496 12.1344 26.5216 26.496l0 0L910.0032 578.4832l-125.8496 124.1856L140.544 702.6688C126.1056 702.6432 114.0224 690.56 113.9968 676.1216L113.9968 676.1216zM848.1024 563.0208c-43.9296 0.1536-79.488 35.6864-79.5648 79.616l0 0L768.5376 729.216c0 10.7264 6.3744 20.3264 16.256 24.4736l0 0c9.9328 4.1472 21.2736 1.9456 28.928-5.6064l0 0 141.4912-139.5968-18.6624-18.8928 0 26.5216 0-26.5216 18.6624 18.8928c7.6288-7.552 9.984-19.0464 5.8624-28.9536l0 0c-4.0448-9.9328-13.7728-16.512-24.5504-16.512l0 0L848.1024 563.0208 848.1024 563.0208zM821.6064 642.6624c0-14.4128 12.0832-26.496 26.496-26.5472l0 0 23.7824 0-50.2784 49.6128L821.6064 642.6624 821.6064 642.6624zM307.5584 419.2256c0.0256 130.5344 105.8048 236.288 236.288 236.288l0 0c130.5088 0 236.2624-105.7536 236.2624-236.288l0 0c-0.0256-130.5088-105.7792-236.2624-236.2624-236.2624l0 0C413.3376 182.9632 307.584 288.7168 307.5584 419.2256L307.5584 419.2256zM375.808 419.2256c0.1792-92.7744 75.264-167.8592 168.0384-168.0128l0 0c92.8 0.1792 167.9104 75.2384 168.0384 168.0128l0 0c-0.1536 92.8-75.2384 167.9104-168.0384 168.064l0 0C451.072 587.136 375.9872 512.0256 375.808 419.2256L375.808 419.2256 375.808 419.2256zM879.8208 22.1184l-223.5136 221.2608c-13.3888 13.2608-13.5168 34.8416-0.256 48.2304l0 0c13.2352 13.3888 34.8672 13.5168 48.2304 0.2816l0 0 223.5392-221.2352c13.3888-13.2864 13.4912-34.8672 0.256-48.2816l0 0c-6.656-6.7584-15.4368-10.112-24.2432-10.112l0 0C895.1808 12.2624 886.5024 15.5392 879.8208 22.1184L879.8208 22.1184zM180.1216 497.9712c-10.4704 0-18.944 8.4736-18.944 18.944l0 0c0 10.4704 8.4736 18.9696 18.944 18.9696l0 0 392.5248 0c10.4704 0 18.9696-8.4992 18.9696-18.9696l0 0c0-10.4704-8.4992-18.944-18.9696-18.944l0 0L180.1216 497.9712 180.1216 497.9712zM180.1216 399.4112c-10.4704 0-18.944 8.4992-18.944 18.9696l0 0c0 10.4704 8.4736 18.9696 18.944 18.9696l0 0 392.5248 0c10.4704 0 18.9696-8.4992 18.9696-18.9696l0 0c0-10.4704-8.4992-18.9696-18.9696-18.9696l0 0L180.1216 399.4112 180.1216 399.4112zM180.1216 300.8512c-10.4704 0-18.944 8.5248-18.944 18.9696l0 0c0 10.4704 8.4736 18.944 18.944 18.944l0 0 392.5248 0c10.4704 0 18.9696-8.4736 18.9696-18.944l0 0c0-10.4448-8.4992-18.9696-18.9696-18.9696l0 0L180.1216 300.8512 180.1216 300.8512z"  horiz-adv-x="1024" />

    
    <glyph glyph-name="iconset0118" unicode="&#58897;" d="M576 153.6 324.266667 153.6c-12.8 0-21.333333-8.533333-21.333333-21.333333s8.533333-21.333333 21.333333-21.333333l251.733333 0c12.8 0 21.333333 8.533333 21.333333 21.333333S584.533333 153.6 576 153.6zM699.733333 320 324.266667 320c-12.8 0-21.333333-8.533333-21.333333-21.333333 0-12.8 8.533333-21.333333 21.333333-21.333333l375.466667 0c12.8 0 21.333333 8.533333 21.333333 21.333333C721.066667 311.466667 712.533333 320 699.733333 320zM324.266667 614.4 426.666667 614.4c12.8 0 21.333333 8.533333 21.333333 21.333333 0 12.8-8.533333 21.333333-21.333333 21.333333L324.266667 657.066667c-12.8 0-21.333333-8.533333-21.333333-21.333333C302.933333 622.933333 311.466667 614.4 324.266667 614.4zM678.4 840.533333l-64 0L221.866667 840.533333c-46.933333 0-85.333333-38.4-85.333333-85.333333l0-750.933333c0-46.933333 38.4-85.333333 85.333333-85.333333l584.533333 0c46.933333 0 85.333333 38.4 85.333333 85.333333L891.733333 571.733333l0 42.666667L678.4 840.533333zM844.8 8.533333c0-21.333333-17.066667-42.666667-42.666667-42.666667L221.866667-34.133333c-21.333333 0-42.666667 17.066667-42.666667 42.666667L179.2 759.466667c0 21.333333 17.066667 42.666667 42.666667 42.666667L597.333333 802.133333l0-209.066667c0-21.333333 17.066667-42.666667 42.666667-42.666667l209.066667 0L849.066667 8.533333zM635.733333 593.066667 635.733333 802.133333l21.333333 0 187.733333-209.066667L635.733333 593.066667zM302.933333 469.333333c0-12.8 8.533333-21.333333 21.333333-21.333333l375.466667 0c12.8 0 21.333333 8.533333 21.333333 21.333333 0 12.8-8.533333 21.333333-21.333333 21.333333L324.266667 490.666667C311.466667 486.4 302.933333 477.866667 302.933333 469.333333z"  horiz-adv-x="1024" />

    
    <glyph glyph-name="zhaopinqiatan" unicode="&#58970;" d="M616 462c-14.3 0-28.2-1.8-41.9-4.5-8.9-48.7-38.6-90-79.6-114.6 85-30 149.8-102.7 168.2-192.6C762.3 152 837 163.2 837 241 837 363 738.1 462 616 462zM408 618c-71.8 0-130-58.2-130-130s58.2-130 130-130c71.8 0 130 58.2 130 130S479.8 618 408 618zM187 98c2.4-87.5 98.9-91 221-91 122.1 0 221 1.4 221 91 0 122.1-98.9 221-221 221C286 319 183.6 220 187 98zM876 241c0-49.1-11.4-76-52-104-36-24.8-104-26-104-26l-52.7 0c0.2-4.3 0.7-8.6 0.7-13 0-49.1-11.3-76-52-104-36-24.8-104-26-104-26L291-32c0 0-58.4 2.8-104.2 39.2C161.5 27.3 148 55.8 148 98c0 113.2 72.5 209.3 173.6 245-49.4 29.5-82.6 83.3-82.6 145 0 93.3 75.7 169 169 169 86.8 0 158.2-65.4 167.8-149.6 12.7-4.1 26.2-6.4 40.2-6.4 71.8 0 130 58.2 130 130 0 71.8-58.2 130-130 130-52.9 0-98.3-31.6-118.6-76.9l-32.7 21.8C492.3 761.6 549.6 800 616 800c93.4 0 169-75.7 169-169 0-61.7-33.2-115.5-82.5-145C803.5 450.3 876 354.2 876 241z"  horiz-adv-x="1024" />

    
    <glyph glyph-name="xitongcaidan" unicode="&#59030;" d="M929.70745 596.56321 93.792153 596.56321c-16.575514 0-30.013571 13.100366-30.013571 29.67588s13.438057 29.67588 30.013571 29.67588l835.916321 0c16.575514 0 30.013571-13.100366 30.013571-29.67588S946.283987 596.56321 929.70745 596.56321zM775.639492 349.946416 93.792153 349.946416c-16.575514 0-30.013571 13.612019-30.013571 30.187533s13.438057 30.187533 30.013571 30.187533L775.639492 410.321482c16.575514 0 30.013571-13.612019 30.013571-30.187533S792.215006 349.946416 775.639492 349.946416zM929.70745 104.352929 93.792153 104.352929c-16.575514 0-30.013571 13.100366-30.013571 29.67588s13.438057 29.67588 30.013571 29.67588l835.916321 0c16.575514 0 30.013571-13.100366 30.013571-29.67588S946.283987 104.352929 929.70745 104.352929z"  horiz-adv-x="1024" />

    
    <glyph glyph-name="qiyegongchangjianzhu" unicode="&#59394;" d="M928 64 896 64 896 512c0 70.4-57.6 128-128 128L576 640 576 704c0 70.4-57.6 128-128 128L192 832C121.6 832 64 774.4 64 704l0-640L32 64C14.08 64 0 49.92 0 32 0 14.08 14.08 0 32 0l896 0c17.92 0 32 14.08 32 32C960 49.92 945.92 64 928 64zM512 640l0-64 0-512L128 64 128 704c0 35.2 28.8 64 64 64l256 0c35.2 0 64-28.8 64-64L512 640zM832 64 576 64 576 576l192 0c35.2 0 64-28.8 64-64L832 64zM416 640l-192 0C206.08 640 192 625.92 192 608 192 590.08 206.08 576 224 576l192 0C433.92 576 448 590.08 448 608 448 625.92 433.92 640 416 640zM416 448l-192 0C206.08 448 192 433.92 192 416 192 398.08 206.08 384 224 384l192 0C433.92 384 448 398.08 448 416 448 433.92 433.92 448 416 448zM416 256l-192 0C206.08 256 192 241.92 192 224S206.08 192 224 192l192 0C433.92 192 448 206.08 448 224S433.92 256 416 256zM736 448l-64 0C654.08 448 640 433.92 640 416 640 398.08 654.08 384 672 384l64 0C753.92 384 768 398.08 768 416 768 433.92 753.92 448 736 448zM736 256l-64 0c-17.92 0-32-14.08-32-32s14.08-32 32-32l64 0c17.92 0 32 14.08 32 32S753.92 256 736 256z"  horiz-adv-x="1024" />

    
    <glyph glyph-name="dianpu" unicode="&#58954;" d="M921.029814 665.893228c-0.185218 85.916788-40.764426 126.940111-126.141932 127.157052-189.139731 0.479931-378.282532 0.530073-567.42124-0.016373-83.392292-0.240477-123.036197-40.321334-123.503848-123.600039-0.531096-94.566796-0.122797-189.139731-0.121773-283.71062s3.239787-189.286064-0.998747-283.666618C99.29447 23.045111 153.373133-26.756131 229.071186-25.399227c187.361225 3.356444 374.823757 0.895393 562.244334 1.205455 90.911546 0.148379 129.548518 38.134529 129.72248 127.823224C921.403321 291.050028 921.43402 478.471628 921.029814 665.893228zM834.81422 126.525927c-0.196475-53.569056-13.142322-65.177442-68.518536-65.448618-85.949534-0.418532-171.901115-0.109494-257.852696-0.109494-84.231403 0-168.466899-0.376577-252.695233 0.134053-54.647621 0.330528-66.51081 12.05864-66.635653 66.907852-0.38681 170.182984-0.356111 340.364945-0.01842 510.548952 0.109494 55.237045 11.966543 68.115354 65.62872 68.300572 171.900092 0.593518 343.804277 0.602727 515.704368-0.028653 51.54291-0.189312 64.184835-12.8384 64.37824-64.600297C835.44867 470.330204 835.443553 298.424996 834.81422 126.525927zM732.113163 618.841609c-21.659299 2.88163-40.291658-9.597589-46.169529-32.181957-2.996241-11.511171-2.050706-23.987321-4.115738-35.812647-15.043624-86.129636-89.87596-148.205437-174.684508-145.256268-84.918042 2.953262-152.760173 64.605414-165.001985 149.628856-1.944282 13.501502-3.244904 27.545356-8.103562 40.071647-6.980995 17.998933-23.286356 27.956725-41.300638 22.675442-13.085016-3.838422-26.375717-14.728446-34.215266-26.151613-5.89322-8.588609-5.094018-23.156396-4.176113-34.821063 10.579963-134.398989 124.760468-238.84069 259.428587-237.933017 111.819738 0.754177 211.634048 73.938989 243.422032 181.28074 7.661494 25.869181 9.744945 53.964052 10.443863 81.136925C768.187777 602.794122 753.760183 615.961002 732.113163 618.841609z"  horiz-adv-x="1024" />

    
    <glyph glyph-name="phone" unicode="&#59310;" d="M914.16 187.424q0-15.424-5.728-40.288t-12-39.136q-12-28.576-69.728-60.576-53.728-29.152-106.272-29.152-15.424 0-30.016 2.016t-32.864 7.136-27.136 8.288-31.712 11.712-28 10.272q-56 20-100 47.424-73.152 45.152-151.136 123.136t-123.136 151.136q-27.424 44-47.424 100-1.728 5.152-10.272 28t-11.712 31.712-8.288 27.136-7.136 32.864-2.016 30.016q0 52.576 29.152 106.272 32 57.728 60.576 69.728 14.272 6.272 39.136 12t40.288 5.728q8 0 12-1.728 10.272-3.424 30.272-43.424 6.272-10.848 17.152-30.848t20-36.288 17.728-30.56q1.728-2.272 10.016-14.272t12.288-20.288 4-16.288q0-11.424-16.288-28.576t-35.424-31.424-35.424-30.272-16.288-26.272q0-5.152 2.848-12.864t4.864-11.712 8-13.728 6.56-10.848q43.424-78.272 99.424-134.272t134.272-99.424q1.152-0.576 10.848-6.56t13.728-8 11.712-4.864 12.864-2.848q10.272 0 26.272 16.288t30.272 35.424 31.424 35.424 28.576 16.288q8 0 16.288-4t20.288-12.288 14.272-10.016q14.272-8.576 30.56-17.728t36.288-20 30.848-17.152q40-20 43.424-30.272 1.728-4 1.728-12z"  horiz-adv-x="1024" />

    
    <glyph glyph-name="sousuo-m" unicode="&#58890;" d="M952.256-15.552l-152.608 163.296c61.856 74.496 95.872 167.36 95.872 265.088 0 229.344-186.624 415.968-416.032 415.968-229.344-0.032-415.968-186.624-415.968-416 0-229.344 186.624-415.936 416-415.936 60.096 0.032 118.048 12.576 172.224 37.248 16.096 7.328 23.2 26.304 15.872 42.368-7.328 16.16-26.368 23.296-42.368 15.872-45.856-20.864-94.88-31.456-145.76-31.488-194.080 0-351.968 157.888-351.968 351.936 0 194.080 157.888 351.968 351.968 351.968 194.112 0 352.032-157.888 352.032-351.968 0-91.328-34.848-177.92-98.080-243.712-12.256-12.736-11.84-32.992 0.864-45.248 0.96-0.928 2.208-1.28 3.264-2.080 0.896-1.28 1.312-2.752 2.4-3.904l165.504-177.088c6.272-6.752 14.816-10.144 23.36-10.144 7.84 0 15.68 2.848 21.856 8.64 12.928 12.032 13.632 32.256 1.568 45.184z"  horiz-adv-x="1024" />

    
    <glyph glyph-name="zixun" unicode="&#58947;" d="M883.528712 333.923488c0.208754 8.452509 0.233314 17.051351 0.057305 25.669636 2.299369 116.594485-32.397874 214.880999-100.360755 284.252972-32.416294 33.081443-71.840188 58.472739-117.01711 75.770707-7.009647 62.98245-75.40948 112.566752-158.492734 112.566752-83.078137 0-151.4749-49.584302-158.487617-112.566752-45.171806-17.296945-84.59263-42.689265-117.003807-75.770707C164.241668 574.471053 129.528052 476.38306 131.843794 360.138546c-0.203638-10.985192-0.1361-21.298072 0.204661-31.376615-17.615193-17.730826-31.414477-44.50768-21.330818-82.083483 7.495718-27.927049 28.1532-48.846498 53.501518-58.006112 12.881378-7.940856 28.010961-12.567223 44.196595-12.674671 32.32215-141.30426 149.643182-237.232053 302.844399-237.232053 152.920832 0 270.27154 96.16827 302.405401 237.554394 0.988514-0.214894 2.018983-0.338714 3.070942-0.338714 20.182668 0 38.747489 7.05058 53.391001 18.786878 19.138896 10.860349 34.109866 29.03529 40.246633 51.909254C921.492348 288.096766 903.583466 316.403462 883.528712 333.923488L883.528712 333.923488 883.528712 333.923488M374.036835 502.496811c2.435469-4.071735 60.822251-100.343359 170.82255-142.072763 30.350239-11.515265 61.443397-18.10024 91.51632-24.464181 60.316737-12.778024 117.300566-24.846898 156.121733-75.248821 0.404206-0.523933 0.855484-1.010003 1.319042-1.465374-0.062422-2.541893-0.062422-2.547009-0.062422-2.547009 0-18.789948-1.417279-36.947494-4.1536-54.397934-49.907667-79.739089-132.715651-131.99422-235.299027-143.250588-7.644097 10.093892-23.217794 17.049305-41.307801 17.049305-25.65224 0-46.471404-13.888312-46.471404-30.974455 0-17.127076 20.819165-30.982642 46.471404-30.982642 22.99676 0 41.941228 11.18883 45.627177 25.825179 33.083489 3.801583 64.630996 11.704576 94.204545 23.64963 42.244126 17.058514 79.473029 41.911552 110.635773 73.871451 4.990664 5.106298 9.779737 10.397814 14.411221 15.826454-37.142945-113.1265-136.435369-185.847755-266.064728-185.859012l0 0c-0.233314 0.01228-0.86981 0.01228-1.101077 0.01228-166.328189 0-282.495956 118.93581-282.495956 289.500487l-0.312108 16.23066c-0.204661 6.955412 0.871857 26.492374 2.031263 45.228087 90.674139 32.078603 128.323621 124.244722 129.971144 128.387066L374.036835 502.496811 374.036835 502.496811M433.842942 244.043435c0-29.697369-24.078395-53.776787-53.775764-53.776787-29.697369 0-53.773717 24.079418-53.773717 53.776787 0 29.696346 24.077372 53.772694 53.773717 53.772694C409.765571 297.816129 433.842942 273.737734 433.842942 244.043435L433.842942 244.043435M684.250062 244.043435c0-29.225625-23.688515-52.919257-52.915164-52.919257-29.221532 0-52.910047 23.694655-52.910047 52.919257 0 29.222555 23.690562 52.91414 52.910047 52.91414C660.561547 296.956551 684.250062 273.264966 684.250062 244.043435L684.250062 244.043435M684.250062 244.043435 684.250062 244.043435z"  horiz-adv-x="1024" />

    
    <glyph glyph-name="youxiang" unicode="&#58983;" d="M153.236734 732.888578l714.763665 0c48.810633 0 88.718697-38.475467 89.332667-85.853503l-446.458679-242.518237L64.313381 646.830419C64.722694 694.310782 104.323773 732.888578 153.236734 732.888578L153.236734 732.888578zM64.313381 554.018587l-0.409313-429.062856c0-47.787349 40.215049-86.876786 89.332667-86.876786l714.763665 0c49.117618 0 89.332667 39.089437 89.332667 86.876786L957.333067 554.223244 521.311882 322.961127c-6.651344-3.581493-14.735285-3.581493-21.386629 0L64.313381 554.018587 64.313381 554.018587zM64.313381 554.018587"  horiz-adv-x="1024" />

    
    <glyph glyph-name="erweima" unicode="&#58946;" d="M48.384 850.624l412.224 0 0-84.992-412.224 0 0 84.992ZM565.44 850.624l238.656 0 0-84.992-238.656 0 0 84.992ZM891.584 850.624l86.72 0 0-86.72-86.72 0 0 86.72ZM48.384 521.6l412.224 0 0-85.056-412.224 0 0 85.056ZM45.696 850.624l84.992 0 0-412.224-84.992 0 0 412.224ZM375.616 850.624l84.992 0 0-412.224-84.992 0 0 412.224ZM189.376 695.168l115.712 0 0-115.712-115.712 0 0 115.712ZM565.44 765.632l82.752 0 0-87.232-82.752 0 0 87.232ZM804.032 765.632l90.752 0 0-160.512-90.752 0 0 160.512ZM891.584 678.4l86.72 0 0-151.872-86.72 0 0 151.872ZM651.328 613.312l152.768 0 0-109.312-152.768 0 0 109.312ZM736.832 526.592l155.392 0 0-88.128-155.392 0 0 88.128ZM565.952 523.84l85.376 0 0-85.376-85.376 0 0 85.376ZM45.696 353.216l84.992 0 0-192.576-84.992 0 0 192.576ZM130.88 178.752l91.968 0 0-92.032-91.968 0 0 92.032ZM45.696 90.368l85.184 0 0-173.056-85.184 0 0 173.056ZM217.664 353.216l261.696 0 0-105.728-261.696 0 0 105.728ZM281.344 256.896l109.184 0 0-100.48-109.184 0 0 100.48ZM370.176 178.752l109.184 0 0-174.848-109.184 0 0 174.848ZM285.44 90.368l105.088 0 0-173.056-105.088 0 0 173.056ZM197.952 26.88l102.016 0 0-109.568-102.016 0 0 109.568ZM629.184 353.216l195.264 0 0-174.464-195.264 0 0 174.464ZM871.168 353.216l107.136 0 0-107.136-107.136 0 0 107.136ZM545.088 265.984l107.136 0 0-194.304-107.136 0 0 194.304ZM716.672 203.2l107.776 0 0-111.872-107.776 0 0 111.872ZM545.088 26.88l107.136 0 0-109.568-107.136 0 0 109.568ZM802.816 3.904l175.488 0 0-86.592-175.488 0 0 86.592ZM890.56 91.328l87.744 0 0-105.728-87.744 0 0 105.728Z"  horiz-adv-x="1024" />

    
    <glyph glyph-name="changyonglogo27" unicode="&#59156;" d="M891.668601 318.388676c-89.079828-49.415456-179.385577-94.695732-279.245935-115.476011-22.460548-4.673439-46.904263-4.493338-69.728084-1.378393-21.74935 2.967588-32.301683 22.24156-24.658609 42.821271 7.1744 19.316951 17.053398 38.555108 29.715789 54.710043 27.179013 34.681894 57.772798 66.673515 85.292572 101.106746 16.857946 21.092387 31.943526 43.912116 45.309952 67.387783 9.606799 16.874319 5.309936 36.984333-11.719926 45.466518-28.615735 14.255679-59.383482 24.26259-89.538269 35.254945-3.470031 1.26583-8.801457-2.573615-15.563464-4.801353 8.610098-7.92039 15.146978-13.933337 23.814382-21.903869-89.63753-15.365966-174.893262-37.784558-257.522168-68.403926-0.35918-1.805112-1.055029-3.091408-0.672312-3.695159 12.166087-19.183921 6.457062-33.785477-11.18576-45.791929-6.747681-4.590552-12.913101-10.039657-17.99177-17.181311 54.416354-16.393365 103.003955-7.04751 149.214417 24.184819-2.877537 4.264117-5.463432 8.094352-8.276501 12.264325 17.597797-3.024893 28.052916-12.914124 29.414937-28.315906 0.300852-3.397377-1.863441-7.011694-2.89391-10.525728-2.575662 2.837628-5.431709 5.477758-7.625678 8.584516-1.359974 1.929955-1.717108 4.567016-2.90926 7.993045-55.102992-37.757952-114.307396-47.208185-179.738617-27.604708 0-13.123902-0.6191-24.283056 0.187265-35.33681 0.696872-9.537214-3.246951-13.586436-11.356652-18.62315-18.96391-11.778254-38.429241-24.020066-53.94154-39.765679-18.942421-19.228947-11.874445-42.436508 13.510712-52.253084 28.945239-11.1919 59.289338-11.378142 89.465614-7.664563 35.753295 4.399193 71.311139 10.380418 110.11184 16.144702-45.859467-21.856797-90.528829-37.381375-138.083915-43.702338-33.100886-4.400217-66.181305-6.867408-99.03762 2.615571-47.045479 13.576203-68.01814 49.27731-55.636135 96.794533 11.613502 44.568055 39.240723 80.126922 69.305459 112.974028 100.070136 109.330034 226.524177 164.893514 372.993063 175.798888 34.153868 2.540869 68.75185-1.944282 100.729146-16.801664 45.12064-20.963451 63.72537-65.163115 41.97295-109.874433-14.423501-29.64825-34.344203-56.907081-53.947679-83.665515-19.367093-26.437116-41.60763-50.755987-62.203714-76.314083-6.076392-7.541767-11.565407-15.756869-16.059767-24.329105-8.528234-16.261359-2.679016-27.380604 15.745612-25.542746 38.647205 3.854794 77.957513 6.890944 115.28977 16.736173 54.803163 14.456247 108.119463 34.56012 162.048723 52.318576C881.465215 314.308755 886.534673 316.446441 891.668601 318.388676z"  horiz-adv-x="1024" />

    
    <glyph glyph-name="shangdian" unicode="&#58884;" d="M922.961304 53.027983l-34.848693 0L888.112612 341.105051l-57.215096 0L830.897515 53.027983 456.00622 53.027983 456.00622 355.401662l-36.772508 0L419.233712 53.027983 203.677331 53.027983 203.677331 341.105051l-50.043766 0L153.633564 53.027983l-52.612265 0c-19.74981 0-35.731806-16.519232-35.731806-36.259832 0-19.710924 15.981996-36.266995 35.731806-36.266995l821.940005 0c19.748786 0 35.748179 16.557094 35.748179 36.266995C958.709483 36.509774 942.710091 53.027983 922.961304 53.027983L922.961304 53.027983zM922.961304 53.027983M496.529145 211.15028l12.640901-12.625552 133.862777 133.8638-14.248516 11.024078L496.529145 211.15028zM496.529145 211.15028M785.97642 243.043664l-14.232143 11.033287L639.488091 121.804393l12.641925-12.633738L785.97642 243.043664zM785.97642 243.043664M741.860666 323.980022l-12.657274 12.633738L514.418584 121.804393l12.625552-12.633738L741.860666 323.980022zM741.860666 323.980022M319.96687 137.281899c0-17.7165 14.280238-32.027437 31.963992-32.027437 17.684778 0 32.05916 14.310937 32.05916 32.027437 0 11.348466-7.659447 21.270443-14.815427 26.952862l0 106.863866c7.15598 5.682419 14.815427 15.604396 14.815427 26.976398 0 17.692964-14.374382 32.019251-32.05916 32.019251-17.668405 0-31.963992-14.326287-31.963992-32.019251 0-10.718109 6.304589-20.136619 13.46057-25.967418l0-108.881826C326.27146 157.401122 319.96687 147.984658 319.96687 137.281899L319.96687 137.281899zM319.96687 137.281899M152.325779 379.878123c34.989909 0 63.566758 25.581632 65.97869 68.476581l12.514012 0c2.427282-42.894949 30.987758-68.476581 66.00939-68.476581 34.990932 0 63.551408 25.581632 65.962318 68.476581l12.531408 0c2.410909-42.894949 30.986735-68.476581 65.977667-68.476581 34.991955 0 63.567781 25.581632 66.011436 68.476581l12.497639 0c2.411933-42.894949 31.003108-68.476581 65.995063-68.476581 34.989909 0 63.566758 25.581632 65.977667 68.476581l12.499685 0c2.442632-42.894949 31.003108-68.476581 66.00939-68.476581 34.991955 0 63.566758 25.581632 66.011436 68.476581l12.481266 0c2.411933-42.894949 31.005155-68.476581 65.979714-68.476581 35.006282 0 63.59848 25.581632 66.00939 68.476581l-2.600221 0 0 15.321964L81.114924 463.676667l0-15.321964 5.233188 0C88.743672 405.459754 117.334847 379.878123 152.325779 379.878123L152.325779 379.878123zM152.325779 379.878123M153.633564 787.498844 866.662067 787.498844l0-35.747155L153.633564 751.751688 153.633564 787.498844 153.633564 787.498844zM153.633564 787.498844M858.181929 730.300121 165.786349 730.300121 83.14721 485.127212l857.688183 0L858.181929 730.300121 858.181929 730.300121zM228.86499 499.430986l-35.716456 0 53.604872 215.541031 35.731806 0L228.86499 499.430986 228.86499 499.430986zM371.822912 499.430986l-35.731806 0 33.210379 215.541031 35.715433 0L371.822912 499.430986 371.822912 499.430986zM527.501554 499.430986 491.753375 499.430986 491.753375 714.970994l35.748179 0L527.501554 499.430986 527.501554 499.430986zM654.949224 499.430986 621.723495 714.970994l35.763528 0 33.17968-215.541031L654.949224 499.429962 654.949224 499.430986zM797.876448 499.430986l-53.589522 215.541031L780.018731 714.972017l53.589522-215.541031L797.876448 499.430986 797.876448 499.430986zM797.876448 499.430986"  horiz-adv-x="1024" />

    
    <glyph glyph-name="xiangzuojiantou" unicode="&#58886;" d="M729.6-35.2l-416 425.6 416 416c9.6 9.6 9.6 25.6 0 35.2-9.6 9.6-25.6 9.6-35.2 0l-432-435.2c-9.6-9.6-9.6-25.6 0-35.2l432-441.6c9.6-9.6 25.6-9.6 35.2 0C739.2-60.8 739.2-44.8 729.6-35.2z"  horiz-adv-x="1024" />

    
    <glyph glyph-name="gengduo" unicode="&#59027;" d="M511.971859 829.138196c-245.826801 0-445.11159-199.284789-445.11159-445.138196s199.284789-445.138196 445.11159-445.138196c245.880013 0 445.164802 199.284789 445.164802 445.138196S757.852896 829.138196 511.971859 829.138196zM511.971859-5.396661c-214.68964 0-389.370055 174.679391-389.370055 389.396661s174.680415 389.396661 389.370055 389.396661c214.744899 0 389.42429-174.679391 389.42429-389.396661S726.716758-5.396661 511.971859-5.396661zM707.065186 411.869744 539.842627 411.869744 539.842627 579.093327c0 15.404852-12.410658 27.869744-27.869744 27.869744-15.350616 0-27.870768-12.465916-27.870768-27.869744l0-167.223582L316.879556 411.869744c-15.350616 0-27.870768-12.464893-27.870768-27.869744 0-15.404852 12.520151-27.869744 27.870768-27.869744l167.222559 0 0-167.223582c0-15.404852 12.520151-27.869744 27.870768-27.869744 15.459087 0 27.869744 12.465916 27.869744 27.869744L539.842627 356.130256l167.222559 0c15.459087 0 27.870768 12.465916 27.870768 27.869744C734.935953 399.405875 722.524273 411.869744 707.065186 411.869744z"  horiz-adv-x="1024" />

    
    <glyph glyph-name="tielu" unicode="&#58934;" d="M875.737452-32.123552l-127.505792 0-26.687259 60.293436-456.648649 0-26.687259-60.293436-127.505792 0 130.471042 188.787645q-38.548263 10.872587-63.258687 43.490347t-24.710425 75.119691l0 432.926641q0 25.698842 13.343629 48.926641t32.617761 42.501931 39.53668 33.111969 35.088803 20.756757 32.617761 14.826255 42.501931 13.837838 57.328185 9.88417 76.108108 3.953668q49.420849 0 86.980695-4.447876t65.72973-11.861004 49.420849-16.803089 39.042471-19.274131 37.559846-22.733591 35.583012-29.158301 26.19305-37.065637 10.378378-46.455598l0-432.926641q0-42.501931-25.204633-75.119691t-63.752896-43.490347zM400.30888 831.752896q-12.849421 0-21.745174-8.895753t-8.895753-22.733591q0-12.849421 8.895753-21.745174t21.745174-8.895753l187.799228 0q12.849421 0 21.745174 8.895753t8.895753 21.745174q0 13.837838-8.895753 22.733591t-21.745174 8.895753l-187.799228 0zM214.486486 522.378378l556.478764 0 0 185.822394-556.478764 0 0-185.822394zM246.11583 201.142857q17.791506 0 30.640927 12.849421t12.849421 30.640927q0 18.779923-12.849421 31.629344t-30.640927 12.849421q-18.779923 0-31.629344-12.849421t-12.849421-31.629344q0-17.791506 12.849421-30.640927t31.629344-12.849421zM692.880309 89.451737l-27.675676 62.27027-343.969112 0-28.664093-62.27027 400.30888 0zM695.84556 244.633205q0-17.791506 12.849421-30.640927t31.629344-12.849421 31.629344 12.849421 12.849421 30.640927q0 18.779923-12.849421 31.629344t-31.629344 12.849421-31.629344-12.849421-12.849421-31.629344z"  horiz-adv-x="1024" />

    
    <glyph glyph-name="gonglu" unicode="&#58906;" d="M172.8-29.866667c-4.266667-21.333333-21.333333-36.266667-38.4-34.133333l0 0c-17.066667 2.133333-29.866667 23.466667-25.6 44.8l138.666667 842.666667c4.266667 21.333333 21.333333 36.266667 38.4 34.133333l0 0c17.066667-2.133333 29.866667-23.466667 25.6-44.8L172.8-29.866667zM552.533333 608c0-10.666667-12.8-21.333333-29.866667-21.333333l0 0c-17.066667 0-29.866667 8.533333-29.866667 21.333333L492.8 802.133333c0 10.666667 12.8 21.333333 29.866667 21.333333l0 0c17.066667 0 29.866667-8.533333 29.866667-21.333333L552.533333 608zM552.533333 288c0-12.8-12.8-23.466667-29.866667-23.466667l0 0c-17.066667 0-29.866667 10.666667-29.866667 23.466667L492.8 505.6c0 12.8 12.8 23.466667 29.866667 23.466667l0 0c17.066667 0 29.866667-10.666667 29.866667-23.466667L552.533333 288zM552.533333-40.533333c0-12.8-12.8-23.466667-29.866667-23.466667l0 0c-17.066667 0-29.866667 10.666667-29.866667 23.466667L492.8 177.066667c0 12.8 12.8 23.466667 29.866667 23.466667l0 0c17.066667 0 29.866667-10.666667 29.866667-23.466667L552.533333-40.533333zM853.333333-32c4.266667-21.333333 21.333333-36.266667 38.4-34.133333l0 0c17.066667 2.133333 29.866667 23.466667 25.6 44.8L778.666667 821.333333c-4.266667 21.333333-21.333333 36.266667-38.4 34.133333l0 0C721.066667 851.2 710.4 832 714.666667 810.666667L853.333333-32z"  horiz-adv-x="1024" />

    
    <glyph glyph-name="sousuo1" unicode="&#58928;" d="M912.072815-50.738335c-4.78498 0-9.56996 1.824555-13.220093 5.475711L650.662083 202.923922c-0.285502 0.285502-0.561795 0.579191-0.827855 0.883113l-6.979972 7.948019c-6.671956 7.594979-6.096858 19.11843 1.297552 26.012444 32.130791 29.958312 57.424874 65.413825 75.181283 105.379049 18.374486 41.35692 27.691689 85.472674 27.691689 131.122363 0 86.355787-33.628912 167.542854-94.691639 228.604558-61.062727 61.062727-142.249795 94.691639-228.604558 94.691639s-167.541831-33.628912-228.604558-94.691639c-61.062727-61.062727-94.691639-142.249795-94.691639-228.604558s33.628912-167.542854 94.691639-228.604558c61.062727-61.062727 142.249795-94.691639 228.604558-94.691639 26.15059 0 52.16508 3.130294 77.326133 9.301853 5.090948 1.353834 73.4038 19.189038 120.842229 14.809287 10.282181-0.948605 17.847483-10.05296 16.899902-20.335141s-10.047844-17.853623-20.335141-16.899902c-41.659819 3.845585-107.272165-13.571087-107.930151-13.747095-0.125867-0.033769-0.251733-0.065492-0.3776-0.097214-28.132734-6.91755-57.20998-10.425444-86.425372-10.425444-48.684816 0-95.922676 9.538237-140.402727 28.352745-42.953278 18.166755-81.523735 44.172035-114.644063 77.290317-33.119305 33.119305-59.123562 71.691809-77.29134 114.644063-18.813484 44.479027-28.352745 91.716888-28.352745 140.401704s9.53926 95.922676 28.352745 140.402727c18.167778 42.953278 44.172035 81.524758 77.29134 114.644063 33.119305 33.119305 71.690786 59.123562 114.644063 77.29134 44.480051 18.813484 91.717911 28.352745 140.402727 28.352745s95.922676-9.53926 140.401704-28.352745c42.953278-18.167778 81.524758-44.173059 114.644063-77.29134 33.118282-33.119305 59.123562-71.690786 77.29134-114.644063 18.813484-44.480051 28.351722-91.717911 28.351722-140.402727 0-50.912553-10.399861-100.136651-30.91101-146.305157-17.285688-38.906102-40.96704-73.973782-70.526263-104.47547l242.313791-242.310721c7.302313-7.30129 7.302313-19.138896 0.001023-26.440186C921.642774-48.912757 916.857794-50.738335 912.072815-50.738335zM165.576059 474.112344c-0.696872 0-1.400906 0.038886-2.110057 0.118704-10.260691 1.152243-17.645892 10.404977-16.493649 20.666692 4.838192 43.080168 17.974373 83.934644 39.046295 121.429607 5.058203 9.002025 16.457834 12.19781 25.458835 7.139607 9.002025-5.058203 12.19781-16.45681 7.139607-25.458835-18.605753-33.108049-30.207999-69.202105-34.484396-107.282399C183.060269 481.172133 174.967964 474.112344 165.576059 474.112344z"  horiz-adv-x="1024" />

    
    <glyph glyph-name="rongyu" unicode="&#58921;" d="M791.573333 384h-11.392c-27.370667-114.282667-126.122667-200.277333-246.122666-207.317333V0h148.181333a42.453333 42.453333 0 0 0 42.261333-42.624V-42.666667H301.290667v0.042667A42.453333 42.453333 0 0 0 343.552 0h148.181333v176.682667c-119.978667 7.04-218.752 93.034667-246.122666 207.317333h-11.712c-93.525333 0-169.344 75.605333-169.344 168.874667v123.072c0 17.664 12.458667 32 27.84 32h145.429333V759.210667A51.242667 51.242667 0 0 0 288.874667 810.666667h448.085333a51.264 51.264 0 0 0 51.050667-51.456v-51.264h145.088c15.36 0 27.818667-14.336 27.818666-32v-123.072c0-93.269333-75.818667-168.874667-169.344-168.874667zM233.365333 665.28H106.901333v-112.405333c0-69.546667 56.917333-126.122667 126.890667-126.208l-0.426667 238.613333z m512.32 93.930667A8.768 8.768 0 0 1 736.96 768H288.874667a8.746667 8.746667 0 0 1-8.725334-8.789333v-311.253334c0-126.421333 102.016-229.269333 227.434667-229.269333h10.688c125.397333 0 227.434667 102.848 227.434667 229.269333V759.210667z m172.906667-93.930667h-126.464L791.722667 426.666667c69.973333 0.085333 126.890667 56.661333 126.890666 126.208v112.405333zM401.813333 345.514667c0.832-0.362667 0.789333-0.469333 0.469334-0.469334a4.736 4.736 0 0 0-0.469334 0.042667v0.426667z"  horiz-adv-x="1024" />

    
    <glyph glyph-name="dianhua" unicode="&#58882;" d="M972.638077 180.456163a473.107269 473.107269 0 0 1-21.101829 28.817851 598.240404 598.240404 0 0 1-22.778607 27.169493 432.281979 432.281979 0 0 1 20.30607 131.229219c0 240.035081-196.055175 435.322916-437.042325 435.322917-5.016125 0-9.98962-0.1421-14.977325-0.29841a735.764647 735.764647 0 0 1-15.858344 29.343621 526.067886 526.067886 0 0 1-17.606173 28.789431 500.830951 500.830951 0 0 0 48.441842 2.358858c274.309567 0 497.477394-222.286809 497.477394-495.516417a491.94971 491.94971 0 0 0-36.860703-187.216563zM321.593366 569.994505s56.356804-282.878188 324.172407-430.150482c33.976076 91.625989 92.634898 147.428603 123.854236 147.428603h0.90944c17.520913-0.611029 85.231495-53.912686 132.650217-113.594626 7.190253-9.065971 13.925786-18.259832 19.936611-27.453693 6.707113-10.2454 12.533208-20.50501 17.151452-30.49463 12.078488-26.302684 15.645194-50.900169 4.461936-69.77103-82.901057-71.788848-125.388915-113.807777-181.632039-113.807777-4.135106 0-8.341262 0.26999-12.661097 0.696289-13.556326 1.463629-28.078932 5.215065-44.235686 11.382199a371.06536 371.06536 0 0 0-37.358053 17.108823c-47.489773 24.696955-108.407982 65.650135-193.596847 125.388915C279.560228 251.008742 238.663888 375.260859 175.543131 558.200216c-6.138714 24.270656-11.964808 45.869834-16.853043 65.380145a749.804113 749.804113 0 0 0-8.696511 38.338542c-2.785157 14.323666-4.575615 27.496323-5.044545 39.87322C142.490704 767.527518 177.745679 810.953235 305.862911 889.278677a46.637174 46.637174 0 0 0 23.503317 6.536593c23.588577 0 46.750853-18.785601 68.008992-45.940884 6.437124-8.184952 12.689517-17.165663 18.728762-26.629514 5.669784-8.838611 11.112209-18.060892 16.369903-27.524742 23.886986-42.899947 43.155727-89.494491 54.694236-117.417113 28.689961-69.472621-165.574755-108.308512-165.574755-108.308512z m190.42802-637.630485c25.592185 0 50.6586 2.188338 75.057145 6.408703a1010.401044 1010.401044 0 0 1 38.509062-22.664927 543.872998 543.872998 0 0 1 39.446921-19.96503 497.704754 497.704754 0 0 0-153.013128-24.000666C237.697609-127.8579 14.501362 94.428908 14.501362 367.672726a491.125531 491.125531 0 0 0 79.67539 268.682413c2.714107-13.286337 5.982404-27.226333 9.691211-41.990509 1.420999-5.683994 2.927257-11.481669 4.447725-17.449862 2.202548-8.525992 4.547195-17.535123 6.934473-26.842663A430.889401 430.889401 0 0 1 74.964851 367.672726c0-240.020871 196.069385-435.308706 437.056535-435.308706z"  horiz-adv-x="1024" />

    
    <glyph glyph-name="building_" unicode="&#58911;" d="M64-64h448V832H64v-896zM320 768h128v-128H320V768z m0-192h128v-128H320V576z m0-192h128v-128H320V384zM128 768h128v-128H128V768z m0-192h128v-128H128V576z m0-192h128v-128H128V384zM576-64h128v192h192v-192h64V320H576zM576 448h384v-64H576z"  horiz-adv-x="1024" />

    
    <glyph glyph-name="qiaoliang" unicode="&#58938;" d="M992 64h-118.4c-51.2 150.4-195.2 256-361.6 256s-310.4-105.6-361.6-256H32c-19.2 0-32 12.8-32 32V448c0 35.2 28.8 64 64 64h32V640H32c-19.2 0-32 12.8-32 32s12.8 32 32 32h960c19.2 0 32-12.8 32-32s-12.8-32-32-32h-64v-128h32c35.2 0 64-28.8 64-64v-352c0-19.2-12.8-32-32-32zM288 640H160v-128h128V640z m192 0h-128v-128h128V640z m192 0h-128v-128h128V640z m192 0h-128v-128h128V640z"  horiz-adv-x="1024" />

    
    <glyph glyph-name="gongsiyewu" unicode="&#58923;" d="M940.463158-114.526316c-8.084211 0-13.473684 5.389474-13.473684 13.473684V680.421053c0 2.694737-2.694737 105.094737-102.4 105.094736H61.978947v-762.610526s-2.694737-53.894737 24.252632-80.842105c10.778947-10.778947 24.252632-16.168421 40.421053-16.168421 99.705263-2.694737 670.989474 0 676.378947 0 8.084211 0 13.473684-5.389474 13.473684-13.473684s-5.389474-13.473684-13.473684-13.473685c-5.389474 0-576.673684-2.694737-676.378947 0-24.252632 0-45.810526 8.084211-59.284211 24.252632-35.031579 35.031579-32.336842 99.705263-32.336842 102.4V815.157895h789.557895c99.705263 0 126.652632-86.231579 129.347368-132.042106v-781.473684c0-10.778947-5.389474-16.168421-13.473684-16.168421zM687.157895 357.052632h-404.210527c-86.231579 0-107.789474 70.063158-107.789473 105.094736V788.210526c0 8.084211 5.389474 13.473684 13.473684 13.473685s13.473684-5.389474 13.473684-13.473685v-323.368421c0-8.084211 2.694737-78.147368 80.842105-78.147368h404.210527s37.726316 0 61.978947 24.252631c13.473684 13.473684 21.557895 35.031579 21.557895 59.284211V788.210526c0 8.084211 5.389474 13.473684 13.473684 13.473685s13.473684-5.389474 13.473684-13.473685v-320.673684c0-32.336842-10.778947-59.284211-29.642105-78.147368-32.336842-29.642105-75.452632-32.336842-80.842105-32.336842zM622.484211 494.484211c-8.084211 0-13.473684 5.389474-13.473685 13.473684V718.147368c0 8.084211 5.389474 13.473684 13.473685 13.473685s13.473684-5.389474 13.473684-13.473685v-210.189473c0-8.084211-5.389474-13.473684-13.473684-13.473684z"  horiz-adv-x="1024" />

    
    <glyph glyph-name="recruit" unicode="&#59135;" d="M699 47.8c-8.4 0-16 5.6-18.1 14.1-12.1 47.9-36.2 89.2-69.9 119.7-7.6 6.9-8.2 18.7-1.3 26.4 6.9 7.6 18.7 8.3 26.4 1.3 39.1-35.4 67.1-83.2 81-138.2 2.5-10-3.5-20.1-13.5-22.7-1.5-0.4-3-0.6-4.6-0.6zM288.2 47.9c-1.5 0-3.1 0.2-4.6 0.6-10 2.5-16 12.7-13.5 22.7 29.2 115.4 121.1 195.9 223.5 195.9 10.3 0 18.7-8.4 18.7-18.7 0-10.3-8.4-18.7-18.7-18.7-85.3 0-162.4-69-187.3-167.8-2.2-8.4-9.8-14-18.1-14zM493.6 229.4c-120.9 0-219.3 101.7-219.3 226.7s98.4 226.6 219.3 226.6 219.3-101.7 219.3-226.6c0-125-98.4-226.7-219.3-226.7zM493.6 645.4c-100.3 0-182-84.9-182-189.3s81.6-189.3 182-189.3c100.3 0 182 84.9 182 189.3s-81.7 189.3-182 189.3zM941.7-64c-4.8 0-9.6 1.8-13.2 5.5l-149.4 149.3c-7.3 7.3-7.3 19.1 0 26.4s19.1 7.3 26.4 0l149.4-149.4c7.3-7.3 7.3-19.1 0-26.4-3.7-3.6-8.4-5.4-13.2-5.4zM493.6 794.8c216.2 0 392.1-175.9 392.1-392.1s-175.9-392.1-392.1-392.1-392 176-392 392.1c0 216.2 175.8 392.1 392 392.1M493.6 832.1c-237.2 0-429.4-192.2-429.4-429.4s192.2-429.4 429.4-429.4c237.1 0 429.4 192.2 429.4 429.4s-192.2 429.4-429.4 429.4z"  horiz-adv-x="1024" />

    
    <glyph glyph-name="web-icon-" unicode="&#59120;" d="M789.12 77.984s-5.632-14.496-13.12 0c0 0-83.808 252.896-288.064 189.216v-78.496s-3.264-46.144-43.52-16.096l-200.832 173.376s-42.592 23.168 2.592 54.88l202.976 174.4s30.528 21.76 37.856-13.92l0.224-84.704c0-0.064 380.704-18.304 301.888-398.656z"  horiz-adv-x="1024" />

    
    <glyph glyph-name="xueshimao" unicode="&#58885;" d="M513.4 340.8l-9.6 2.9L87 521.7l423.6 155.5 7.3-1.6L937 521.7 513.4 340.8zM179.6 519.3L512 377.4l332.4 141.9-332.4 122-332.4-122zM517.7 90.9c-192.9 0-262.6 120.3-265.5 125.5l-2.2 3.9v164h34.2v-154.7C296.6 210.7 361.4 125 517.7 125c156.2 0 221 85.5 233.5 104.5V384.3h34.2v-164l-2.2-3.9c-2.9-5.2-72.6-125.5-265.5-125.5zM813.8 189.3h49.8l-27.3 268.4z"  horiz-adv-x="1024" />

    
    <glyph glyph-name="shizheng" unicode="&#59045;" d="M877.7 94.2v-82.8h41.4V-30H104.9v41.4h41.4v82.8h41.4V480.6H105L512 798l407.1-317.4h-82.7v-386.4h41.3zM512.1 742.7L229.2 522.1H795L512.1 742.7z m-283-262.1v-386.4h96.6V480.6h-96.6z m138 0v-386.4h124.2V480.6H367.1z m165.6 0v-386.4h124.2V480.6H532.7z m165.6 0v-386.4h96.6V480.6h-96.6zM187.7 52.8v-41.4h648.6v41.4H187.7z m324.3 621c34.3 0 62.1-27.8 62.1-62.1s-27.8-62.1-62.1-62.1-62.1 27.8-62.1 62.1 27.8 62.1 62.1 62.1z m0-82.8c11.4 0 20.7 9.3 20.7 20.7 0 11.4-9.3 20.7-20.7 20.7-11.4 0-20.7-9.3-20.7-20.7 0-11.4 9.3-20.7 20.7-20.7z"  horiz-adv-x="1024" />

    
    <glyph glyph-name="fuwu" unicode="&#58952;" d="M939.1 447.6c0 1.3-0.6 3.2-1.9 5.7L724 666.6h-1.9c-1.3 1.3-2.5 1.9-3.8 1.9-1.3 1.3-3.2 1.9-5.7 1.9H316.4c-2.5 0-4.4-0.6-5.7-1.9-1.3 0-3.2-0.6-5.7-1.9L91.8 453.3v-1.9c-1.3-1.3-1.9-2.7-1.9-3.8l-1.9-1.9v-5.7c0-1.3 0.6-2.5 1.9-3.8v-1.9c0-1.3 0.6-1.9 1.9-1.9l411.3-432.7 3.8-3.8h1.9c1.3-1.3 3.2-1.9 5.7-1.9s4.4 0.6 5.7 1.9h1.9l3.8 3.8 411.3 432.7 1.9 1.9v1.9l1.9 3.8v5.7l-1.9 1.9zM727.8 619.1l161.8-161.8H727.8V619.1zM697.4 640v-159.9L548.9 640h148.5z m-19.1-182.8H350.7l163.8 175.1 163.8-175.1zM331.6 640h148.5L331.6 480.1V640z m-30.4-20.9v-161.8H139.4l161.8 161.8zM133.7 426.7h171.4L465 100.8 133.7 426.7zM514.5 55l-177 371.7v0.2-0.2h354.1L514.5 55z m49.4 45.8l159.9 326.1h171.4L563.9 100.8zM337.5 426.7zM158.8 642.5l9.5-19.3c0-0.2 0.2-0.2 0.3-0.3l21.2-3.2c0.3 0 0.5-0.5 0.3-0.8l-15.4-15.1c-0.2-0.2-0.2-0.3-0.2-0.3l3.6-21.2c0-0.3-0.3-0.6-0.6-0.5l-19 10h-0.5l-19-10c-0.3-0.2-0.6 0.2-0.6 0.5l3.6 21.2c0 0.2 0 0.3-0.2 0.3l-15.4 15.1c-0.3 0.3-0.2 0.6 0.3 0.8l21.2 3.2c0.2 0 0.3 0.2 0.3 0.3l9.5 19.3c0.4 0.4 0.9 0.4 1.1 0zM152.8 729.4l-1.7-14.1c0-0.2 0-0.2 0.2-0.3l10.6-9.5c0.2-0.2 0.2-0.5-0.2-0.5l-14.1-2.7c-0.2 0-0.2 0-0.2-0.2l-5.7-13c-0.2-0.2-0.5-0.2-0.5 0l-6.8 12.5c0 0.2-0.2 0.2-0.2 0.2l-14.3 1.4c-0.3 0-0.3 0.3-0.2 0.5l9.8 10.5s0.2 0.2 0 0.3l-3 13.9c0 0.2 0.2 0.5 0.5 0.3l12.8-6h0.3l12.4 7.1c0.1 0 0.3-0.1 0.3-0.4zM217.7 727.6l4.5-10 8.4-5.3-8.4-5.6-4.5-10-4.6 10-8.4 5.6 8.4 5.3zM916.3 593.6l2.9-5.9 0.1-0.1 6.5-0.9c0.1 0 0.2-0.1 0.1-0.2l-4.7-4.6v-0.1l1.1-6.5c0-0.1-0.1-0.2-0.2-0.1l-5.8 3.1h-0.1l-5.8-3.1c-0.1-0.1-0.2 0-0.2 0.1l1.1 6.5v0.1l-4.7 4.6c-0.1 0.1 0 0.2 0.1 0.2l6.5 0.9s0.1 0 0.1 0.1l2.9 5.9c-0.1 0.1 0.1 0.1 0.1 0zM862.3 690.9l-0.3-16.5c0-0.2 0-0.2 0.2-0.3l13.5-9.7c0.2-0.2 0.2-0.5-0.2-0.6l-15.8-4.8c-0.2 0-0.2-0.2-0.2-0.2l-5.1-15.7c-0.2-0.3-0.5-0.3-0.6-0.2l-9.5 13.5c0 0.2-0.2 0.2-0.3 0.2l-16.5-0.2c-0.3 0-0.5 0.3-0.3 0.5l10 13.2c0 0.2 0.2 0.2 0 0.3l-5.2 15.7c-0.2 0.3 0.2 0.5 0.5 0.5l15.5-5.4h0.3l13.3 9.8c0.4 0.2 0.7 0 0.7-0.1zM896.1 553.9l2.3-5.1 4.2-2.7-4.2-2.8-2.3-5.1-2.3 5.1-4.2 2.8 4.2 2.7z"  horiz-adv-x="1024" />

    
    <glyph glyph-name="guidaojiaotong" unicode="&#59054;" d="M532.8 10.5V-31h-41.5v41.5H145.4V52h733.2v-41.5H532.8z m-387.4 415V799h733.2v-705.5H145.4v332z m691.7 332H532.8V467h304.3V757.5zM186.9 135h650.2V425.5H186.9V135z m0 332h304.3V757.5H186.9V467z m525.7-290.5c-45.8 0-83 37.2-83 83s37.2 83 83 83 83-37.2 83-83-37.2-83-83-83z m0 124.5c-22.9 0-41.5-18.6-41.5-41.5s18.6-41.5 41.5-41.5 41.5 18.6 41.5 41.5-18.6 41.5-41.5 41.5zM311.4 176.5c-45.8 0-83 37.2-83 83s37.2 83 83 83 83-37.2 83-83-37.1-83-83-83z m0 124.5c-22.9 0-41.5-18.6-41.5-41.5s18.6-41.5 41.5-41.5 41.5 18.6 41.5 41.5-18.6 41.5-41.5 41.5z"  horiz-adv-x="1024" />

    
    <glyph glyph-name="gaotie" unicode="&#59465;" d="M825.04192 644.95104v-295.00928c-20.34176 17.29024-45.2608 34.86208-75.5456 50.96448a27.10016 27.10016 0 0 1 21.64224 26.55744V591.1552a27.0336 27.0336 0 0 1-27.06432 27.06432h-190.81728a27.0336 27.0336 0 0 1-27.06432-27.06432v-128.26624a711.42912 711.42912 0 0 1-16.32768 1.30048 455.3216 455.3216 0 0 0-13.1072 1.01888V591.1552a27.07968 27.07968 0 0 1-27.12064 27.06432h-190.8224a27.06432 27.06432 0 0 1-27.06432-27.06432v-49.26976c-21.41696 14.06976-39.15776 28.75904-53.84704 43.1104V683.76576a75.776 75.776 0 0 0 3.67104 23.11168c54.528-17.40288 146.40128-32.9984 291.05664-21.07392 172.72832 14.23872 278.10816-16.3328 332.41088-40.85248zM825.04192 342.26176a7.68 7.68 0 0 0-4.97664 1.82784c-22.08256 18.76992-47.04256 35.60448-74.17344 50.03776a7.67488 7.67488 0 1 0 2.06336 14.30016 19.48672 19.48672 0 0 1 15.50336 19.03104V591.1552a19.4048 19.4048 0 0 1-19.38432 19.38432h-190.81728a19.4048 19.4048 0 0 1-19.38432-19.38432v-128.26624a7.68 7.68 0 0 0-8.40192-7.64416 725.888 725.888 0 0 1-16.1536 1.28512 464.82432 464.82432 0 0 0-13.2608 1.02912 7.68 7.68 0 0 0-6.97856 7.64928v125.952a19.43552 19.43552 0 0 1-19.44064 19.38432h-190.8224a19.4048 19.4048 0 0 1-19.38432-19.38432v-49.27488a7.68512 7.68512 0 0 0-11.89888-6.41536c-20.10112 13.2096-38.6048 28.02176-54.99904 44.03712a7.68512 7.68512 0 0 0-2.31424 5.49376v98.7648c0 8.53504 1.36192 17.09568 4.0448 25.45664a7.68512 7.68512 0 0 0 9.64608 4.97152c51.75808-16.52224 116.29568-24.89856 191.82592-24.89856h0.02048c30.37184 0 62.75072 1.39776 96.24064 4.16256 29.44 2.42688 58.34752 3.65568 85.91872 3.65568 124.20608 0 204.66688-24.56064 250.28608-45.16352 2.74944-1.24416 4.52096-3.98336 4.52096-6.99904v-295.00928a7.68 7.68 0 0 0-7.68-7.68z m-59.01312 58.28096a432.78848 432.78848 0 0 0 51.328-34.43712V639.95392c-44.96896 19.5328-122.00448 41.79968-239.44704 41.79968-27.15648 0-55.63392-1.21344-84.6592-3.60448-33.90464-2.7904-66.70848-4.20864-97.50016-4.20864h-0.02048c-73.43616 0-136.88832 7.81824-188.77952 23.2448a66.58048 66.58048 0 0 1-1.37728-13.4144v-95.5136a347.6224 347.6224 0 0 1 38.49216-31.80032V591.1552a34.78016 34.78016 0 0 0 34.74432 34.74432h190.81728c19.18976 0 34.80064-15.58528 34.80064-34.74432v-118.8864c1.96608-0.14848 3.94752-0.28672 5.92384-0.41472 2.75456-0.19968 5.46816-0.39424 8.15616-0.60416V591.1552a34.78016 34.78016 0 0 0 34.74432 34.74432h190.81728a34.78016 34.78016 0 0 0 34.74432-34.74432v-163.69664a34.90304 34.90304 0 0 0-12.78464-26.91584zM825.04192 683.76576v-38.81984c-54.30272 24.5248-159.68256 55.0912-332.416 40.85248-144.65024-11.92448-236.52864 3.67104-291.05664 21.07392 9.04192 29.49632 34.3552 55.71584 64.3584 62.21312a1188.5312 1188.5312 0 0 0 491.07968 0c37.74976-8.07424 67.97824-47.51872 68.03456-85.31968zM825.04192 637.27104c-1.0752 0-2.1504 0.22528-3.15904 0.68096-44.25216 19.98336-122.49088 43.8016-243.96288 43.8016-27.15648 0-55.63392-1.21344-84.6592-3.60448-33.90464-2.7904-66.71872-4.20864-97.52064-4.20864-77.11232 0-143.22176 8.62208-196.49536 25.62048a7.68 7.68 0 0 0-5.00736 9.56928c10.2656 33.50016 38.4256 60.61056 70.07744 67.46624 162.24256 34.25792 332.11904 34.2528 494.28992 0.01024 40.82176-8.73984 74.06592-50.37568 74.12736-92.8256v-38.82496a7.68 7.68 0 0 0-7.69024-7.68512z m-247.12704 59.84256c114.90304 0 192.36352-21.0176 239.44704-40.47872v27.136c-0.0512 34.9952-28.42624 70.63552-61.96224 77.81376-160.04096 33.79712-327.79776 33.79712-487.8848-0.00512-23.66464-5.12512-45.80864-25.06752-56.00256-49.72032 50.432-14.97088 112.35328-22.55872 184.22272-22.5536 30.3872 0 62.7712 1.39776 96.26112 4.16256 29.44 2.41664 58.34752 3.64544 85.91872 3.64544zM744.06912 618.22464h-190.81728a27.0336 27.0336 0 0 1-27.06432-27.06432v-163.69664a27.07968 27.07968 0 0 1 27.06432-27.12064h190.81728c1.86368 0 3.67104 0.16896 5.36576 0.5632h0.05632a27.10016 27.10016 0 0 1 21.64224 26.55744V591.1552a27.0336 27.0336 0 0 1-27.06432 27.06944zM744.06912 392.66304h-190.81728c-19.15904 0-34.74432 15.61088-34.74432 34.80064V591.1552a34.78016 34.78016 0 0 0 34.74432 34.74432h190.81728a34.78016 34.78016 0 0 0 34.74432-34.74432v-163.69152c0-16.44032-11.67872-30.77632-27.776-34.07872a31.60576 31.60576 0 0 0-6.96832-0.72192z m-190.81216 217.8816a19.4048 19.4048 0 0 1-19.38432-19.38432V427.4688a19.4304 19.4304 0 0 1 19.38432-19.44064h190.81728c1.37728 0 2.59072 0.12288 3.61472 0.36352 0.18944 0.04096 0.37376 0.08192 0.5632 0.10752a19.49696 19.49696 0 0 1 15.2064 18.9696V591.1552a19.4048 19.4048 0 0 1-19.38432 19.38432h-190.81728zM704.23552 257.72544a42.77248 42.77248 0 0 1-41.984-34.69312 41.6768 41.6768 0 0 1-0.7936-8.02304 42.73664 42.73664 0 0 1 25.76384-39.21408 41.6256 41.6256 0 0 1 17.00864-3.5584c23.61856 0 42.71616 19.15392 42.71616 42.77248a42.71104 42.71104 0 0 1-42.71104 42.71616zM704.23552 164.5568a49.0752 49.0752 0 0 0-20.14208 4.224 50.34496 50.34496 0 0 0-30.31552 46.22336c0 3.15904 0.3072 6.26688 0.93184 9.49248 4.48 23.69024 25.31328 40.9088 49.52576 40.9088 27.79136 0 50.39616-22.60992 50.39616-50.40128 0-27.81696-22.6048-50.44736-50.39616-50.44736z m0 85.48864c-16.83968 0-31.31904-11.96032-34.44224-28.4416a34.07872 34.07872 0 0 1-0.65536-6.59968 35.0208 35.0208 0 0 1 21.13536-32.15872 33.94048 33.94048 0 0 1 13.96224-2.92864c19.31776 0 35.03616 15.73888 35.03616 35.09248a35.07712 35.07712 0 0 1-35.03616 35.03616zM749.49632 400.90624h-0.05632c-1.69472-0.39424-3.50208-0.5632-5.36576-0.5632h-190.81728a27.07968 27.07968 0 0 0-27.06432 27.12064v35.4304a711.42912 711.42912 0 0 1-16.32768 1.30048 455.3216 455.3216 0 0 0-13.1072 1.01888v-37.74464a27.12576 27.12576 0 0 0-27.12064-27.12064H323.33824c40.45824-35.2 82.21184-81.08544 119.56224-140.29824 4.97152-7.85408 9.8304-15.93344 14.63296-24.2432 23.4496-40.85248 44.75392-87.58272 62.26944-140.86656H756.16256c38.08256 0.16896 68.87936 30.96576 68.87936 68.87936v186.12736c-20.34176 17.28512-45.2608 34.85696-75.5456 50.95936z m-45.2608-228.67456a41.71264 41.71264 0 0 0-17.00864 3.5584 42.7264 42.7264 0 0 0-25.76384 39.21408c0 2.76992 0.2816 5.42208 0.7936 8.02304a42.75712 42.75712 0 0 0 41.984 34.69312 42.71616 42.71616 0 0 0 42.71616-42.71616c-0.00512-23.61856-19.10272-42.77248-42.72128-42.77248zM756.16256 87.25504h-236.35456a7.68 7.68 0 0 0-7.296 5.27872c-16.37376 49.80224-37.10976 96.7168-61.63456 139.43808a700.98944 700.98944 0 0 1-14.464 23.95648c-33.24928 52.72064-72.9856 99.34848-118.1184 138.61888a7.68 7.68 0 0 0 5.0432 13.47584h146.28864a19.456 19.456 0 0 1 19.44064 19.44064v37.74464a7.68 7.68 0 0 0 8.38144 7.64416c4.22912-0.38912 8.56064-0.72192 12.89728-0.9984 5.65248-0.4096 11.136-0.80384 16.5632-1.32096a7.68 7.68 0 0 0 6.95296-7.64416v-35.4304a19.4304 19.4304 0 0 1 19.38432-19.44064h190.81728c1.37728 0 2.59072 0.12288 3.61472 0.36352a7.91552 7.91552 0 0 0 5.41696-0.69632c28.1088-14.94528 53.9904-32.4096 76.91264-51.89632a7.68 7.68 0 0 0 2.70336-5.85216v-186.12736c0-42.02496-34.3296-76.36992-76.52352-76.55936l-0.0256 0.00512z m-230.81984 15.36h230.79936c33.75616 0.15872 61.21472 27.61216 61.21472 61.19936v182.54848c-20.78208 17.33632-44.032 32.9728-69.18656 46.53568a34.19136 34.19136 0 0 0-4.10624-0.24064h-190.81728c-19.15904 0-34.74432 15.61088-34.74432 34.80064v28.38528c-3.03616 0.24064-6.09792 0.4608-9.20064 0.68608-1.62304 0.1024-3.2512 0.21504-4.87936 0.3328v-29.40416a34.8416 34.8416 0 0 0-34.80064-34.80064H343.35744c40.10496-37.2992 75.7248-80.45568 106.04032-128.52736a708.80256 708.80256 0 0 0 14.78656-24.48896c24.18688-42.13248 44.74368-88.20224 61.1584-137.02656z m178.8928 61.94176a49.0752 49.0752 0 0 0-20.14208 4.224 50.34496 50.34496 0 0 0-30.31552 46.22336c0 3.15904 0.3072 6.26688 0.93184 9.49248 4.48 23.69024 25.31328 40.9088 49.52576 40.9088 27.79136 0 50.39616-22.60992 50.39616-50.40128 0-27.81696-22.6048-50.44736-50.39616-50.44736z m0 85.48864c-16.83968 0-31.31904-11.96032-34.44224-28.4416a34.07872 34.07872 0 0 1-0.65536-6.59968 35.0208 35.0208 0 0 1 21.13536-32.15872 33.94048 33.94048 0 0 1 13.96224-2.92864c19.31776 0 35.03616 15.73888 35.03616 35.09248a35.07712 35.07712 0 0 1-35.03616 35.03616zM457.53856 235.8016c-4.80256 8.30464-9.66144 16.384-14.63296 24.2432-37.3504 59.21792-79.104 105.09824-119.56224 140.29824h-44.52352c-14.91456 0-27.06432 12.14976-27.06432 27.12064v26.4448a556.15488 556.15488 0 0 1-53.84704 30.17216v-320.26624c0-37.9136 30.7968-68.7104 68.87936-68.87936h253.02528c-17.52576 53.28384-38.82496 100.01408-62.27456 140.86656z m-121.8816-60.01152a41.71264 41.71264 0 0 0-17.00864-3.5584c-23.56224 0-42.71616 19.15392-42.71616 42.77248 0 23.56224 19.15392 42.71616 42.71616 42.71616a42.7264 42.7264 0 0 0 41.984-34.69312 41.6768 41.6768 0 0 0 0.78848-8.02304 42.64448 42.64448 0 0 0-25.76384-39.21408zM519.80288 87.25504H266.7776c-42.22976 0.18944-76.55936 34.5344-76.55936 76.55936V484.08064a7.68512 7.68512 0 0 0 11.04384 6.90176 565.4528 565.4528 0 0 0 54.59968-30.58688 7.68 7.68 0 0 0 3.56864-6.48704v-26.4448a19.4304 19.4304 0 0 1 19.38432-19.44064h44.52352a7.68 7.68 0 0 0 5.03808-1.88416c46.2592-40.25344 86.97856-88.02816 121.02144-142.0032a708.80256 708.80256 0 0 0 14.78656-24.48896c25.05728-43.648 46.21824-91.52512 62.91456-142.3104a7.66464 7.66464 0 0 0-7.296-10.08128zM205.57824 471.62368v-307.80928c0-33.59744 27.4688-61.05088 61.2352-61.19936h242.30912c-15.81056 46.0544-35.38432 89.52832-58.24512 129.36192a700.98944 700.98944 0 0 1-14.464 23.95648c-32.7168 51.87584-71.72096 97.85856-115.95776 136.73472h-41.64096c-19.15904 0-34.74432 15.61088-34.74432 34.80064v22.20032a559.84128 559.84128 0 0 1-38.49216 21.95456z m113.07008-307.06688c-27.78624 0-50.39616 22.6304-50.39616 50.45248 0 27.79136 22.60992 50.40128 50.39616 50.40128 24.21248 0 45.04064-17.21856 49.53088-40.94976a48.7936 48.7936 0 0 0 0.92672-9.45152 50.31424 50.31424 0 0 0-30.40768-46.26432 48.88576 48.88576 0 0 0-20.04992-4.18816z m0 85.48864a35.07712 35.07712 0 0 1-35.03616-35.04128c0-19.34848 15.7184-35.09248 35.03616-35.09248a33.792 33.792 0 0 1 13.8752 2.8928 35.01056 35.01056 0 0 1 21.21728 32.19456c0 2.176-0.21504 4.32128-0.64512 6.5536a35.04128 35.04128 0 0 1-34.44736 28.4928zM729.94304 94.93504h-90.06592l20.39808-38.48192H362.66496l20.39808 38.48192H292.9408l-63.68256-120.35584h90.12224l21.58592 40.79616h341.00736l21.5808-40.79616h90.07104zM793.6256-33.1008h-90.07104a7.68 7.68 0 0 0-6.78912 4.09088l-19.42016 36.70528H345.59488l-19.42016-36.70528a7.68 7.68 0 0 0-6.78912-4.09088H229.25824a7.68 7.68 0 0 0-6.78912 11.27424l63.68256 120.35584a7.68 7.68 0 0 0 6.78912 4.09088h90.12224a7.68 7.68 0 0 0 6.784-11.27936l-14.41792-27.20256h272.08192l-14.41792 27.20256a7.69024 7.69024 0 0 0 6.784 11.27936h90.07104a7.68 7.68 0 0 0 6.78912-4.09088l63.68256-120.35584a7.68 7.68 0 0 0-6.79424-11.27424z m-85.44768 15.36h72.69376l-55.55712 104.99584h-72.6784l14.41792-27.20256a7.69024 7.69024 0 0 0-6.784-11.27936H362.66496a7.68 7.68 0 0 0-6.784 11.27936l14.41792 27.20256H297.56416l-55.55712-104.99584h72.74496l19.42016 36.70528a7.68 7.68 0 0 0 6.78912 4.09088h341.00224a7.68 7.68 0 0 0 6.78912-4.09088l19.42528-36.70528zM360.63232 223.03232a42.71104 42.71104 0 0 1-41.984 34.69312c-23.56224 0-42.71616-19.15392-42.71616-42.71616 0-23.61856 19.15392-42.77248 42.71616-42.77248a41.728 41.728 0 0 1 17.00864 3.5584 42.63936 42.63936 0 0 1 25.76384 39.21408c0 2.7648-0.2816 5.42208-0.78848 8.02304zM318.64832 164.5568c-27.78624 0-50.39616 22.6304-50.39616 50.45248 0 27.79136 22.60992 50.40128 50.39616 50.40128 24.21248 0 45.04064-17.21856 49.53088-40.94976a48.7936 48.7936 0 0 0 0.92672-9.45152 50.31424 50.31424 0 0 0-30.40768-46.26432 48.88576 48.88576 0 0 0-20.04992-4.18816z m0 85.48864a35.07712 35.07712 0 0 1-35.03616-35.04128c0-19.34848 15.7184-35.09248 35.03616-35.09248a33.792 33.792 0 0 1 13.8752 2.8928 35.01056 35.01056 0 0 1 21.21728 32.19456c0 2.176-0.21504 4.32128-0.64512 6.5536a35.04128 35.04128 0 0 1-34.44736 28.4928zM469.62688 618.22464H278.81472a27.06944 27.06944 0 0 1-27.06432-27.06432V427.4688c0-14.976 12.14976-27.12064 27.06432-27.12064h190.81216a27.12576 27.12576 0 0 1 27.12064 27.12064V591.1552a27.07456 27.07456 0 0 1-27.12064 27.06944zM469.62688 392.66304H278.81472c-19.15904 0-34.74432 15.61088-34.74432 34.80064V591.1552a34.78016 34.78016 0 0 0 34.74432 34.74432h190.81728c19.18976 0 34.80064-15.58528 34.80064-34.74432v-163.69152a34.84672 34.84672 0 0 0-34.80576-34.80064zM278.81472 610.54464a19.4048 19.4048 0 0 1-19.38432-19.38432V427.4688a19.4304 19.4304 0 0 1 19.38432-19.44064h190.81728a19.46624 19.46624 0 0 1 19.44064 19.44064V591.1552a19.43552 19.43552 0 0 1-19.44064 19.38432H278.81472zM825.05728 346.23488H626.2784c-4.61312 0-9.00608-1.792-12.21632-5.0432l-102.59456-102.52288-102.55872 102.52288a17.36704 17.36704 0 0 1-12.25216 5.0432H197.87776v-34.5344h191.63648l109.73696-109.70112a17.18784 17.18784 0 0 1 12.21632-5.0432c4.44416 0 8.85248 1.67424 12.21632 5.0432l109.73696 109.70112h191.63648v34.5344zM511.46752 189.28128a24.7808 24.7808 0 0 0-17.64864 7.29088l-107.48416 107.44832H197.87776a7.68 7.68 0 0 0-7.68 7.68v34.5344a7.68 7.68 0 0 0 7.68 7.68h198.77888c6.64576 0 12.91776-2.58048 17.65376-7.26016l97.15712-97.1264 97.16224 97.09568a24.66816 24.66816 0 0 0 17.64864 7.29088h198.77888a7.68 7.68 0 0 0 7.68-7.68v-34.5344a7.68 7.68 0 0 0-7.68-7.68h-188.45696l-107.48416-107.44832a24.7808 24.7808 0 0 0-17.64864-7.29088z m-305.90976 130.0992h183.95648c2.03776 0 3.98848-0.80896 5.43232-2.24768l109.73696-109.70112c3.59936-3.59936 9.97888-3.59936 13.57824 0l109.73696 109.70112a7.68 7.68 0 0 0 5.43232 2.24768h183.95648v19.1744H626.2784c-2.59584 0-5.00224-0.97792-6.76352-2.7648l-102.61504-102.54848a7.68 7.68 0 0 0-10.85952 0l-102.55872 102.52288a9.66144 9.66144 0 0 1-6.82496 2.7904H205.55776v-19.1744z"  horiz-adv-x="1024" />

    
    <glyph glyph-name="rongyu1" unicode="&#59161;" d="M281.6 405.333333c-4.266667 17.066667-4.266667 34.133333-4.266667 51.2 0 128 106.666667 234.666667 234.666667 234.666667s234.666667-106.666667 234.666667-234.666667c0-17.066667 0-34.133333-4.266667-51.2 0 0 0-4.266667 4.266667-4.266666l106.666666-183.466667c8.533333-12.8-4.266667-34.133333-21.333333-29.866667l-115.2 8.533334-51.2-102.4c-8.533333-17.066667-29.866667-17.066667-38.4 0l-76.8 136.533333c-12.8 0-25.6-4.266667-38.4-4.266667-12.8 0-25.6 0-38.4 4.266667l-76.8-136.533333c-8.533333-12.8-29.866667-12.8-38.4 0l-51.2 102.4-115.2-8.533334c-17.066667 0-29.866667 17.066667-21.333333 29.866667l110.933333 187.733333c0-4.266667 0 0 0 0z m21.333333-51.2l-72.533333-123.733333 89.6 4.266667c8.533333 0 17.066667-4.266667 21.333333-12.8l38.4-81.066667 51.2 89.6c-55.466667 25.6-102.4 68.266667-128 123.733333z m290.133334-119.466666l51.2-89.6 38.4 81.066666c4.266667 8.533333 12.8 12.8 21.333333 12.8l89.6-4.266666-72.533333 123.733333c-25.6-59.733333-72.533333-102.4-128-123.733333z m-81.066667 29.866666c106.666667 0 192 85.333333 192 192s-85.333333 192-192 192-192-85.333333-192-192 85.333333-192 192-192z"  horiz-adv-x="1024" />

    
    <glyph glyph-name="Group-" unicode="&#59028;" d="M608 448a96 96 0 1 1-96-96 96 96 0 0 1 96 96z m64 0a160 160 0 1 0-160 160 160 160 0 0 0 160-160zM128 445.12a384 384 0 1 0 576-334.4l-160-160a47.68 47.68 0 0 0-67.84 0l-167.68 167.04A386.24 386.24 0 0 0 128 445.12z m370.56-449.92z m166.72 167.04l3.84 1.92A321.92 321.92 0 1 1 192 445.12a322.24 322.24 0 0 1 153.28-274.88l3.2-2.24 2.56-2.56 160-160z"  horiz-adv-x="1024" />

    
    <glyph glyph-name="gongsishiming-" unicode="&#58883;" d="M602.2 96.7c-8.5 0-16.5 5.2-19.6 13.7-4 10.8 1.6 22.8 12.4 26.7 102 37.4 170.5 135.5 170.5 244.2 0 143.3-116.6 260-260 260-11.5 0-20.8 9.3-20.8 20.8s9.3 20.8 20.8 20.8c166.3 0 301.6-135.3 301.6-301.6 0-126.1-79.5-239.9-197.9-283.3-2.2-0.9-4.7-1.3-7-1.3zM504.7 640.9c-6.6 0-13.2 3.2-17.2 9.1-6.5 9.5-4.1 22.5 5.4 29l87.8 60.1c9.5 6.5 22.5 4.1 29-5.4s4.1-22.5-5.4-29l-87.8-60.1c-3.6-2.5-7.7-3.7-11.8-3.7zM509.3 93.8c-166.3 0-301.6 135.3-301.6 301.6 0 126.1 79.5 240 197.9 283.3 10.8 4 22.8-1.6 26.7-12.4 4-10.8-1.6-22.8-12.4-26.7-102-37.4-170.5-135.5-170.5-244.2 0-143.4 116.6-260 260-260 11.5 0 20.8-9.3 20.8-20.8-0.1-11.5-9.4-20.8-20.9-20.8zM424.2 34.4c-6.6 0-13.2 3.2-17.2 9.1-6.5 9.5-4.1 22.4 5.4 29l87.8 60.1c9.5 6.5 22.5 4.1 29-5.4s4.1-22.4-5.4-29L436 38c-3.6-2.4-7.7-3.6-11.8-3.6zM501.8 185.6c-112.8 0-204.6 91.8-204.6 204.6S389 594.8 501.8 594.8 706.4 503 706.4 390.2s-91.8-204.6-204.6-204.6z m0 367.5c-89.8 0-162.9-73.1-162.9-162.9 0-89.8 73.1-162.9 162.9-162.9s162.9 73.1 162.9 162.9c0 89.8-73.1 162.9-162.9 162.9zM465.2 208.2c-42.1 51-65.3 115.7-65.3 182 0 67.5 24 133.1 67.5 184.6l15.9-13.4c-40.3-47.7-62.6-108.5-62.6-171.1 0-61.5 21.5-121.4 60.6-168.7l-16.1-13.4zM501.8 288.3c-65.4 0-129.4 22.7-180.1 63.8l13.1 16.2c47-38.1 106.3-59.2 167-59.2 65.1 0 127.6 23.8 176.2 67l13.8-15.6c-52.4-46.6-119.9-72.2-190-72.2zM328.6 388.2L314.9 404c51.9 44.8 118.2 69.4 186.8 69.4 68.3 0 134.5-24.5 186.2-68.9l-13.5-15.8c-48 41.2-109.3 63.9-172.7 63.9-63.6 0-125.1-22.9-173.1-64.4zM536.4 205.9l-15.9 13.4c40.2 47.7 62.4 108.4 62.4 170.9 0 65.4-24 128.2-67.5 176.8l15.5 13.9c47-52.5 72.8-120.2 72.8-190.7 0-67.4-23.9-132.8-67.3-184.3zM478 565h21v-375h-21zM311 377h375v-20H311z"  horiz-adv-x="1024" />

    
    <glyph glyph-name="weizhi" unicode="&#58955;" d="M510.3 824.9c-167 0-302.4-134.7-302.4-300.9s302.4-526.5 302.4-526.5S812.7 358 812.7 524.1 677.3 824.9 510.3 824.9z m0-432.4c-73.1 0-132.3 58.9-132.3 131.6 0 72.7 59.2 131.6 132.3 131.6 73.1 0 132.2-58.9 132.2-131.6 0-72.7-59.1-131.6-132.2-131.6z m0 0M644 118.1c-8.2-11.3-16.3-22.2-24.1-32.5C700.6 76.3 756 57.2 756 35c0-31.1-110-56.4-245.6-56.4-135.7 0-245.7 25.3-245.7 56.4 0 22.2 55.4 41.3 136.1 50.6-8.1 10.8-16.2 21.6-24.2 32.5-89.2-15.8-149.8-47-149.8-83 0-51.8 126.9-94 283.5-94s283.4 42.2 283.4 94c0 36-60.6 67.1-149.7 83z m0 0"  horiz-adv-x="1024" />

    
    <glyph glyph-name="lianximaijia" unicode="&#58893;" d="M936.161 241.9c-31.16-170.281-180.46-279.87-366.704-294.851-8.54-25.651-33.127-44.319-62.475-44.319-36.413 0-65.925 28.508-65.925 63.693 0 35.174 29.512 63.724 65.925 63.724 27.874 0 51.61-16.815 61.256-40.5 160.891 13.701 290.765 103.916 322.775 248.064a76.544 76.544 0 0 0-48.118 31.806c-27.105-83.774-85.78-153.436-162.252-195.134-1.055-0.563-2.069-1.208-3.154-1.771-0.45-0.113-0.901-0.287-1.413-0.287s-0.994 0.174-1.506 0.287c-0.624 0.256-1.249 0.584-1.874 0.84a6.042 6.042 0 0 0-2.775 5.007c0 1.556 0.594 3.051 1.67 4.188 0.112 0.082 0.225 0.195 0.317 0.287 75.622 68.526 80.271 135.516 71.936 233.318-7.26 85.545-57.815 166.677-83.313 203.326l-1.782-1.106a8.13 8.13 0 0 1-6.44 3.297 7.987 7.987 0 0 1-7.824-6.666c-2.673-25.334-8.479-42.916-12.503-51.61-17.183-37.171-45.291-59.494-86.405-66.918-64.686-11.705-129.024-25.283-193.7-37.212-40.305-7.424-74.895-52.306-68.147-98.028 15.37-103.885 86.344-178.32 105.994-192.809a6.226 6.226 0 0 1-3.594 1.219c-1.29 0-2.785-1.403-4.127-3.113a39.65 39.65 0 0 1-3.737-6.001c-84.9 36.7-151.982 106.27-184.935 192.553-13.64-16.681-34.14-27.535-57.364-27.535a74.527 74.527 0 0 0-74.527 74.547V447.078c0 36.7 26.542 67.042 61.42 73.257C158.74 705.116 320.563 844.8 515.46 844.8c189.676 0 347.873-132.372 389.274-309.811 0.594 0 1.167 0.112 1.792 0.112 42.25 0 76.503-33.69 76.503-75.223v-148.633c0-31.212-19.333-57.959-46.869-69.345z m-420.7 537.794c-165.314 0-302.418-119.9-330.178-277.606 2.805-2.57 5.662-5.1 8.11-8.049 49.019 129.413 174.438 221.686 321.894 221.686 148.08 0 273.95-93.061 322.53-223.314 2.068 4.24 4.679 8.182 7.515 11.95-28.672 156.61-165.345 275.333-329.87 275.333z m-79.595-613.437c0.194-0.174 22.261-18.647 71.772-18.678 9.748 0 20.04 0.737 30.617 2.14 70.667 9.452 88.812 38.472 88.986 38.748a6.86 6.86 0 0 0 8.653 2.734c3.143-1.433 4.7-4.925 3.625-8.181-14.316-43.561-53.115-75.172-98.796-80.6-4.761-0.563-9.492-0.85-14.151-0.85-40.745 0-79.422 21.515-100.977 56.106a6.717 6.717 0 0 0 1.423 8.693 6.85 6.85 0 0 0 8.848-0.112z"  horiz-adv-x="1024" />

    
    <glyph glyph-name="fuwu1" unicode="&#60214;" d="M640 153.6V42.666667h-85.333333v174.933333c106.666667 17.066667 192 102.4 209.066666 209.066667h85.333334c-12.8-123.733333-98.133333-230.4-209.066667-273.066667z m-256 0c-115.2 42.666667-196.266667 149.333333-213.333333 273.066667h85.333333c17.066667-106.666667 102.4-192 209.066667-209.066667V42.666667H384v110.933333zM605.866667 682.666667C674.133333 682.666667 725.333333 635.733333 725.333333 563.2c0-59.733333-51.2-123.733333-89.6-157.866667-25.6-25.6-68.266667-51.2-123.733333-81.066666-55.466667 29.866667-98.133333 55.466667-123.733333 81.066666-42.666667 38.4-89.6 98.133333-89.6 157.866667C298.666667 635.733333 349.866667 682.666667 418.133333 682.666667c38.4 0 68.266667-17.066667 93.866667-46.933334 25.6 29.866667 55.466667 46.933333 93.866667 46.933334z"  horiz-adv-x="1024" />

    
    <glyph glyph-name="xiangxiazhankai" unicode="&#59238;" d="M511.1 383.1l1.8 1.8-1.8-1.8zM510.9 385.1l2.2-2.2c-0.7 0.8-1.4 1.5-2.2 2.2zM960.5 384c0-60.5-11.9-119.3-35.3-174.6-22.6-53.4-54.9-101.4-96.1-142.5-41.2-41.2-89.1-73.5-142.6-96.1-55.3-23.4-114.1-35.3-174.6-35.3s-119.3 11.9-174.6 35.3C284-6.6 236 25.7 194.9 66.9 153.7 108 121.4 156 98.8 209.4 75.4 264.7 63.5 323.5 63.5 384s11.9 119.3 35.3 174.6c22.6 53.4 54.9 101.4 96.1 142.6 41.2 41.2 89.1 73.5 142.6 96.1 55.2 23.3 114 35.2 174.5 35.2s119.3-11.9 174.6-35.3c53.4-22.6 101.4-54.9 142.6-96.1 41.2-41.2 73.5-89.1 96.1-142.6 23.3-55.2 35.2-114 35.2-174.5z m-832 0c0-211.5 172-383.5 383.5-383.5s383.5 172 383.5 383.5-172 383.5-383.5 383.5-383.5-172-383.5-383.5zM512.9 384.9l-1.8-1.8 1.8 1.8zM513.1 382.9l-2.2 2.2c0.7-0.8 1.4-1.5 2.2-2.2zM533.7 266.3l1.8 1.8 21.8 21.8L723 455.6c12.5 12.4 12.5 32.8 0.1 45.2-12.5 12.4-32.9 12.4-45.3 0L512 335.1 346.3 500.9c-12.5 12.4-32.9 12.4-45.3 0-12.4-12.5-12.4-32.9 0-45.3l165.7-165.7 21.5-21.5 2.2-2.2c5.7-5.2 13.2-8.3 21.5-8.3 8.4-0.1 16.1 3.1 21.8 8.4z"  horiz-adv-x="1024" />

    
    <glyph glyph-name="xiangyoujiantou1" unicode="&#59019;" d="M1024.2048 384c0-6.656-2.4576-13.2608-7.5264-18.2784l-325.8368-325.8368a25.6 25.6 0 1 0-36.1984 36.1984l282.5216 282.5216H25.8048a25.6 25.6 0 1 0 0 51.2h910.9504l-282.112 282.112a25.6 25.6 0 1 0 36.1984 36.1984l325.8368-325.8368c4.608-4.608 7.5264-11.008 7.5264-18.0736V384z"  horiz-adv-x="1024" />

    
    <glyph glyph-name="yuandian" unicode="&#59011;" d="M512 384m-512 0a512 512 0 1 1 1024 0 512 512 0 1 1-1024 0Z"  horiz-adv-x="1024" />

    
    <glyph glyph-name="xiangxia1" unicode="&#58950;" d="M640.256 463.456L512 345.6 383.68 463.456c-10.144 10.048-26.528 10.048-36.768 0-10.08-10.048-10.08-26.368 0-36.352l146.624-143.712c10.176-10.048 26.624-10.048 36.704 0l146.624 143.712c10.176 9.984 10.144 26.304 0 36.352-10.08 10.048-26.464 10.048-36.672 0zM512 888.32C240.544 888.32 20.48 668.256 20.48 396.8c0-271.52 220.064-491.52 491.52-491.52s491.52 220 491.52 491.52C1003.52 668.256 783.456 888.32 512 888.32z m0-919.232c-236.288 0-427.712 191.488-427.712 427.712S275.712 824.512 512 824.512c236.192 0 427.712-191.488 427.712-427.712S748.16-30.912 512-30.912z"  horiz-adv-x="1024" />

    
    <glyph glyph-name="chuanzhen" unicode="&#59059;" d="M1001.841447 476.691132H951.241112c-12.564417 0-22.844395-10.279978-22.844395-22.844395s10.279978-22.844395 22.844395-22.844395h27.75594v-347.463246h-78.69894v124.501953c0 12.564417-10.279978 22.844395-22.844395 22.844394h-735.589515c-12.564417 0-22.844395-10.279978-22.844395-22.844394v-124.501953H45.6893V431.002342h831.764417c11.193753 0 20.445733 7.995538 22.387507 18.618182 0.342666 1.71333 0.57111 3.426659 0.57111 5.139989V705.934635C900.412334 810.790407 815.088519 896 710.346968 896H143.46331c-13.478193 0-24.329281-10.96531-24.329281-24.329281V476.691132H22.844905c-12.564417 0-22.844395-10.279978-22.844395-22.844395v-393.152035c0-12.564417 10.279978-22.844395 22.844395-22.844395h96.174902v-143.005912c0-12.564417 10.279978-22.844395 22.844395-22.844395h735.589515c12.564417 0 22.844395 10.279978 22.844395 22.844395V37.850307h101.543335c12.564417 0 22.844395 10.279978 22.844395 22.844395V453.846737c0 12.564417-10.165756 22.844395-22.844395 22.844395zM854.837766 705.934635v-8.795092H708.976305V850.31121h1.370663c79.726938 0 144.490798-64.763859 144.490798-144.376575zM164.708597 850.31121h498.578918v-174.988064c0-13.135527 10.736866-23.872393 23.872393-23.872393h167.677858v-174.759621H164.708597V850.31121z m689.900725-932.736642h-689.900725v138.208589c0.342666 1.599108 0.57111 3.198215 0.57111 4.911545s-0.228444 3.312437-0.57111 4.911545V185.196654h689.900725v-267.622086z"  horiz-adv-x="1025" />

    
    <glyph glyph-name="taobao" unicode="&#59239;" d="M119.428571 656.342857a78.514286 78.514286 0 1 1 157.028572 0 78.514286 78.514286 0 1 1-157.028572 0z m834.285715-90.514286s-27.085714 210.742857-487.885715 80.114286c19.771429 34.285714 29.257143 56.571429 29.257143 56.571429L379.885714 734.857143s-46.4-151.542857-129.142857-222.171429c0 0 80.114286-46.4 79.314286-45.028571 22.971429 22.971429 43.657143 46.4 61.371428 69.028571 18.4 8 36 15.542857 53.371429 22.628572-21.257143-38.285714-55.657143-95.771429-90.057143-132.114286l48.457143-42.285714s32.914286 31.657143 69.028571 69.942857h41.142858v-70.628572H353.028571v-56.571428h160.342858v-135.428572c-1.942857 0-4.114286 0-6.171429 0.228572-17.6 0.8-45.142857 3.771429-56 20.8-13.142857 20.685714-3.428571 58.857143-2.742857 82.171428h-110.857143l-3.885714-2.057142s-40.571429-181.828571 116.914285-177.714286c147.542857-4.114286 232 41.142857 272.685715 72.114286l16.228571-60.114286 90.971429 37.942857-61.6 150.742857-73.828572-22.971428 13.828572-51.657143c-18.971429-14.171429-40.685714-24.8-64.228572-32.457143V327.657143h156.685715v56.571428H644.685714V454.857143h157.257143v56.571428H522.628571c20.114286 24.457143 36 46.971429 40 61.257143l-48.571428 13.257143c208.914286 74.857143 325.142857 61.942857 324.114286-60.8v-323.2s12.342857-110.971429-114.742858-102.971428l-68.8 14.742857-16.228571-65.257143S935.428571-36.571429 959.657143 191.771429c24.342857 228.571429-5.942857 374.057143-5.942857 374.057142z m-808.457143-20.914285l-51.885714-79.657143 95.542857-59.542857s64-32.571429 33.6-93.6C194.057143 254.285714 54.857143 127.657143 54.857143 127.657143l124.571428-77.828572c86.171429 187.085714 80.571429 162.285714 102.285715 229.371429 22.285714 68.685714 27.085714 121.028571-10.742857 158.971429-48.457143 48.685714-53.714286 53.257143-125.714286 106.742857z"  horiz-adv-x="1024" />

    
    <glyph glyph-name="youjiantou-tianchong" unicode="&#59197;" d="M512 864C246.4 864 32 649.6 32 384s214.4-480 480-480 480 214.4 480 480S777.6 864 512 864z m192-518.4L454.4 96c-12.8-12.8-32-12.8-44.8 0-12.8 12.8-12.8 32 0 44.8l227.2 227.2-227.2 227.2c-12.8 12.8-12.8 32 0 44.8 12.8 12.8 32 12.8 44.8 0l249.6-249.6c12.8-12.8 12.8-32 0-44.8z"  horiz-adv-x="1024" />

    
    <glyph glyph-name="zuojiantou-tianchong" unicode="&#59198;" d="M512 864C246.4 864 32 649.6 32 384s214.4-480 480-480 480 214.4 480 480S777.6 864 512 864z m70.4-723.2c12.8-12.8 12.8-32 0-44.8s-32-12.8-44.8 0L288 345.6c-12.8 12.8-12.8 32 0 44.8L537.6 640c12.8 12.8 32 12.8 44.8 0 12.8-12.8 12.8-32 0-44.8l-227.2-227.2 227.2-227.2z"  horiz-adv-x="1024" />

    
    <glyph glyph-name="dibudaohanglan-" unicode="&#58929;" d="M1024 679.563636c0 41.890909-25.6 79.127273-65.163636 95.418182V896H907.636364v-116.363636c-37.236364-4.654545-69.818182-30.254545-81.454546-65.163637H204.8V896H153.6v-181.527273H0V663.272727h153.6v-525.963636c-39.563636-9.309091-69.818182-44.218182-74.472727-83.781818H0v-51.2h83.781818c11.636364-30.254545 37.236364-53.527273 69.818182-62.836364V-128h51.2v67.490909c32.581818 9.309091 58.181818 32.581818 69.818182 62.836364h558.545454c69.818182 0 128 58.181818 128 130.327272V584.1454550000001c37.236364 13.963636 62.836364 51.2 62.836364 95.418181zM179.2-11.636363999999958c-27.927273 0-51.2 23.272727-51.2 51.2s23.272727 51.2 51.2 51.2 51.2-23.272727 51.2-51.2-23.272727-51.2-51.2-51.2z m653.963636 65.163637H279.272727c-6.981818 41.890909-34.909091 74.472727-74.472727 83.781818V663.272727h616.727273c6.981818-46.545455 41.890909-81.454545 88.436363-86.109091v-446.836363c0-41.890909-34.909091-76.8-76.8-76.8z m88.436364 574.836363c-27.927273 0-51.2 23.272727-51.2 51.2s23.272727 51.2 51.2 51.2 51.2-23.272727 51.2-51.2-23.272727-51.2-51.2-51.2z"  horiz-adv-x="1024" />

    
    <glyph glyph-name="changyongicon-" unicode="&#58905;" d="M597.333333 704l153.386667-136.32v-465.706667A37.973333 37.973333 0 0 0 713.386667 64H310.613333a37.973333 37.973333 0 0 0-37.973333 37.973333V666.026667A37.973333 37.973333 0 0 0 310.613333 704H597.333333m16.213334 42.666667h-302.933334a80.64 80.64 0 0 1-80.64-80.64v-564.053334A80.64 80.64 0 0 1 310.613333 21.33333300000004h402.773334a80.64 80.64 0 0 1 80.64 80.64V586.88L614.186667 746.666667zM597.333333 554.666667a21.333333 21.333333 0 0 0-21.333333 21.333333V725.333333a21.333333 21.333333 0 0 0 42.666667 0v-149.333333a21.333333 21.333333 0 0 0-21.333334-21.333333zM768 554.666667h-170.666667a21.333333 21.333333 0 0 0 0 42.666666h170.666667a21.333333 21.333333 0 0 0 0-42.666666zM663.68 170.66666699999996H338.986667a21.333333 21.333333 0 0 0 0 42.666666h324.693333a21.333333 21.333333 0 0 0 0-42.666666zM606.293333 298.66666699999996H338.986667a21.333333 21.333333 0 0 0 0 42.666666h267.306666a21.333333 21.333333 0 0 0 0-42.666666zM529.92 426.666667h-190.933333a21.333333 21.333333 0 0 0 0 42.666666h192a21.333333 21.333333 0 1 0 0-42.666666z"  horiz-adv-x="1024" />

    


  </font>
</defs>
</svg>
